<svg xmlns="http://www.w3.org/2000/svg" viewBox="0 0 652.68 355.76"><defs><style>.cls-1{fill:#002856;}.cls-2{fill:#f71e39;}</style></defs><title>Recurso 1</title><g id="Capa_2" data-name="Capa 2"><g id="Capa_1-2" data-name="Capa 1"><path class="cls-1" d="M103.5,355.76,92.89,324.81H34.52l-10.6,30.95H0L54.67,206.62H72.74l54.67,149.14ZM64.23,240.27,41.17,305.91H86.66Z"/><path class="cls-1" d="M173.69,355.76a32.48,32.48,0,0,1-13-2.39,25.46,25.46,0,0,1-9-6.33,24.81,24.81,0,0,1-5.2-9.25,36.8,36.8,0,0,1-1.66-11.11V206.62h21.29L166,325.43c0,4,.83,7.06,2.49,9.14s4.64,3.12,8.93,3.12h9.35v18.07Z"/><path class="cls-1" d="M234.55,268.31v87.45H213.37V268.31H201.32v-16.2h12.05v-16.2A34.19,34.19,0,0,1,215.13,225a27.08,27.08,0,0,1,5.3-9.35,26.16,26.16,0,0,1,8.93-6.54,30.54,30.54,0,0,1,12.88-2.49h13.29v18.07h-9.34q-6,0-8.83,3.22t-2.81,9v15.17h21v16.2Z"/><path class="cls-1" d="M290.43,308q0,13.71,6.85,21.61t19.94,7.89q8.94,0,14.44-2.6a40.45,40.45,0,0,0,11.11-8.2l13.5,12.67a75.17,75.17,0,0,1-8.2,7.17,45,45,0,0,1-18.9,8.2,67.18,67.18,0,0,1-12.36,1,60.1,60.1,0,0,1-18.6-2.8,37.56,37.56,0,0,1-15-9.14A44.53,44.53,0,0,1,273,327.09q-3.76-10.38-3.77-25.34,0-25.75,12.26-39.78t32.61-14a45.64,45.64,0,0,1,18.9,3.74,39.69,39.69,0,0,1,14,10.39,45.54,45.54,0,0,1,8.72,16,66.72,66.72,0,0,1,3,20.57V308Zm46.63-22.53a26,26,0,0,0-2.18-6.55,21.19,21.19,0,0,0-7.89-9.66,22.58,22.58,0,0,0-12.88-3.63,23.05,23.05,0,0,0-13,3.63,21,21,0,0,0-8,9.66,23,23,0,0,0-2.08,6.55c-.28,2-.49,4.6-.62,7.79h47.36A65.24,65.24,0,0,0,337.06,285.45Z"/><path class="cls-1" d="M444.55,273.92a28.32,28.32,0,0,0-7-5.3,19.33,19.33,0,0,0-8.82-1.76,19.92,19.92,0,0,0-14.86,6.33q-6.12,6.35-6.12,17.35v65.22H386.6V248h20.74l0,12.67A30.26,30.26,0,0,1,419,251.48,38,38,0,0,1,435.41,248a38.56,38.56,0,0,1,13.71,2.29,32.63,32.63,0,0,1,11.43,7.68Z"/><path class="cls-1" d="M469.89,355.76V337.69l52.35-69.59H472.8V248h75.61V266l-52.76,69.58h52.76v20.15Z"/><path class="cls-1" d="M631.94,355.76l0-10.8a36.23,36.23,0,0,1-12,8.31q-6.23,2.49-16,2.49a50.62,50.62,0,0,1-16.72-2.39,30.27,30.27,0,0,1-11.53-7.17q-8.31-8.71-8.31-22.64,0-13.29,9-21.81t27.31-8.51H631.5v-7.48q0-10-5.3-14.85T608.44,266q-8.73,0-13.71,2.28a25.69,25.69,0,0,0-9.35,7.89l-13.91-13.08q7.47-8.73,16.09-12T609.27,248q43.41,0,43.41,36.15v71.66ZM631.5,308H606.78q-9.35,0-14.13,3.95t-4.78,11.22q0,7.28,4.68,11.11t14.64,3.84a56.75,56.75,0,0,0,10.8-.93,17.38,17.38,0,0,0,8.93-5.09q4.58-4.57,4.58-15.58Z"/><path class="cls-2" d="M474.61,0a29.65,29.65,0,1,0,29.63,29.64A29.69,29.69,0,0,0,474.61,0Z"/><path class="cls-2" d="M337.82,38.75a20.55,20.55,0,1,0-20.55,20.54A20.57,20.57,0,0,0,337.82,38.75Z"/><path class="cls-2" d="M631.62,76.58h-.18l-.67,0a11.78,11.78,0,0,0-9.09,4.89L540.25,194.53,496.79,84.05h0c-.07-.18-.14-.35-.22-.51l0-.07-.21-.44a.75.75,0,0,0-.07-.12,3.9,3.9,0,0,0-.19-.35,2,2,0,0,0-.11-.2l-.15-.25-.18-.27-.1-.15-.25-.35,0-.07-.31-.39h0a11.2,11.2,0,0,0-1.16-1.22h0l-.41-.35-.08-.07-.35-.27-.19-.14-.25-.17-.33-.22-.12-.08-.46-.27h0A12.06,12.06,0,0,0,489,77h-.06l-.43-.11-.15,0-.34-.07-.27,0-.24,0-.39,0h-.14l-.49,0h-.06l-.56,0H462.45c-.44,0-.89,0-1.33.06H461l-.46.06-.28,0-.26,0-.41.08-.13,0-.48.13H459l-.52.17h0l-.52.2h0l-.5.22h0l-.46.22-.07,0-.4.22-.12.07-.32.2-.19.12-.25.17-.24.18-.17.12-.31.24-.1.09-.35.3,0,0c-.13.11-.25.23-.37.35l0,0c-.13.13-.26.26-.38.4h0l-.37.42v0q-.17.2-.33.42l0,0c-.09.13-.19.26-.28.4a.83.83,0,0,0-.08.12,4,4,0,0,0-.22.34l-.15.25-.12.22c-.08.15-.16.29-.23.44l0,0a11.36,11.36,0,0,0-.52,1.25L410.57,194.14,329.35,81.47a11.79,11.79,0,0,0-9.2-4.88l-.64,0a11.8,11.8,0,0,0-11.79,11.8V180a11.8,11.8,0,0,0,23.59,0V124.54l73,101.23a11.76,11.76,0,0,0,9.58,4.9H414a11.79,11.79,0,0,0,11.06-7.7l45.46-122.8h7.26l48.39,123a11.78,11.78,0,0,0,11,7.48h.09a11.78,11.78,0,0,0,9.58-4.9l72.82-101.09V180a11.8,11.8,0,0,0,23.59,0V88.37A11.79,11.79,0,0,0,631.62,76.58Z"/><path class="cls-2" d="M652.47,38.75a20.55,20.55,0,1,0-20.55,20.54A20.57,20.57,0,0,0,652.47,38.75Z"/></g></g></svg>