<svg xmlns="http://www.w3.org/2000/svg" xmlns:xlink="http://www.w3.org/1999/xlink" viewBox="0 0 2243.04 1307.04"><defs><style>.cls-1{fill:none;}.cls-2{isolation:isolate;}.cls-3{fill:url(#linear-gradient);}.cls-4{fill:#91b3fa;}.cls-5{fill:#7d97f4;}.cls-6{fill:#bdd0fb;}.cls-7{fill:#dce5fe;}.cls-8{fill:#f0f0f0;}.cls-9{fill:#ffc249;}.cls-10{fill:#e5ae41;}.cls-11{mix-blend-mode:soft-light;}.cls-12{fill:#fff;}.cls-13{fill:url(#linear-gradient-2);}.cls-14{fill:url(#linear-gradient-3);}.cls-15{fill:url(#linear-gradient-4);}.cls-16{fill:url(#linear-gradient-5);}.cls-17{fill:url(#linear-gradient-6);}.cls-18{fill:url(#linear-gradient-7);}.cls-19{fill:url(#linear-gradient-8);}.cls-20{fill:url(#linear-gradient-9);}.cls-21{fill:url(#linear-gradient-10);}.cls-22{fill:url(#linear-gradient-11);}.cls-23{fill:url(#linear-gradient-12);}.cls-24{fill:url(#linear-gradient-13);}.cls-25{fill:url(#linear-gradient-14);}.cls-26{fill:url(#linear-gradient-15);}.cls-27{fill:url(#linear-gradient-16);}.cls-28{fill:url(#linear-gradient-17);}.cls-29{fill:url(#linear-gradient-18);}.cls-30{fill:url(#linear-gradient-19);}.cls-31{fill:url(#linear-gradient-20);}.cls-32{fill:url(#linear-gradient-21);}.cls-33{fill:url(#linear-gradient-22);}.cls-34{fill:url(#linear-gradient-23);}.cls-35{clip-path:url(#clip-path);}.cls-36{fill:url(#linear-gradient-24);}.cls-37{fill:url(#linear-gradient-25);}.cls-38{fill:url(#linear-gradient-26);}.cls-39{fill:url(#linear-gradient-27);}.cls-40{fill:url(#linear-gradient-28);}.cls-41{fill:url(#linear-gradient-29);}.cls-42{fill:url(#linear-gradient-30);}.cls-43{fill:url(#linear-gradient-31);}.cls-44{fill:url(#linear-gradient-32);}.cls-45{fill:url(#linear-gradient-33);}.cls-46{fill:url(#linear-gradient-34);}.cls-47{fill:url(#linear-gradient-35);}.cls-48{fill:url(#linear-gradient-36);}.cls-49{fill:url(#linear-gradient-37);}.cls-50{fill:url(#linear-gradient-38);}.cls-51{fill:url(#linear-gradient-39);}.cls-52{fill:url(#linear-gradient-40);}.cls-53{fill:url(#linear-gradient-41);}.cls-54{fill:url(#linear-gradient-42);}.cls-55{fill:url(#linear-gradient-43);}.cls-56{fill:url(#linear-gradient-44);}.cls-57{fill:url(#linear-gradient-45);}.cls-58{fill:url(#linear-gradient-46);}.cls-59{fill:url(#linear-gradient-47);}.cls-60{fill:url(#linear-gradient-48);}.cls-61{fill:url(#linear-gradient-49);}.cls-62{fill:url(#linear-gradient-50);}.cls-63{fill:url(#linear-gradient-51);}.cls-64{fill:url(#linear-gradient-52);}.cls-65{fill:url(#linear-gradient-53);}.cls-66{fill:url(#linear-gradient-54);}.cls-67{fill:url(#linear-gradient-55);}.cls-68{fill:url(#linear-gradient-56);}.cls-69{fill:url(#linear-gradient-57);}.cls-70{fill:url(#linear-gradient-58);}.cls-71{fill:url(#linear-gradient-59);}.cls-72{fill:url(#linear-gradient-60);}.cls-73{fill:url(#linear-gradient-61);}.cls-74{fill:url(#linear-gradient-62);}.cls-75{fill:url(#linear-gradient-63);}.cls-76{fill:url(#linear-gradient-64);}.cls-77{fill:url(#linear-gradient-65);}.cls-78{fill:url(#linear-gradient-66);}.cls-79{fill:url(#linear-gradient-67);}.cls-80{fill:url(#linear-gradient-68);}.cls-81{fill:url(#linear-gradient-69);}.cls-82{fill:url(#linear-gradient-70);}.cls-83{fill:url(#linear-gradient-71);}.cls-84{fill:url(#linear-gradient-72);}.cls-85{fill:url(#linear-gradient-73);}.cls-86{fill:url(#linear-gradient-74);}.cls-87{fill:url(#linear-gradient-75);}.cls-88{fill:url(#linear-gradient-76);}.cls-89{fill:url(#linear-gradient-77);}.cls-90{fill:url(#linear-gradient-78);}.cls-91{fill:url(#linear-gradient-79);}.cls-92{fill:url(#linear-gradient-80);}.cls-93{fill:url(#linear-gradient-81);}.cls-94{fill:url(#linear-gradient-82);}.cls-95{fill:url(#linear-gradient-83);}.cls-96{fill:url(#linear-gradient-84);}.cls-97{fill:url(#linear-gradient-85);}.cls-98{fill:url(#linear-gradient-86);}.cls-99{fill:url(#linear-gradient-87);}.cls-100{fill:url(#linear-gradient-88);}.cls-101{fill:url(#linear-gradient-89);}.cls-102{fill:url(#linear-gradient-90);}.cls-103{fill:url(#linear-gradient-91);}.cls-104{fill:url(#linear-gradient-92);}.cls-105{fill:url(#linear-gradient-93);}.cls-106{fill:url(#linear-gradient-94);}.cls-107{fill:url(#linear-gradient-95);}.cls-108{fill:url(#linear-gradient-96);}.cls-109{fill:url(#linear-gradient-97);}.cls-110{fill:url(#linear-gradient-98);}.cls-111{fill:url(#linear-gradient-99);}.cls-112{fill:url(#linear-gradient-100);}.cls-113{fill:url(#linear-gradient-101);}.cls-114{fill:url(#linear-gradient-102);}.cls-115{fill:url(#linear-gradient-103);}.cls-116{fill:url(#linear-gradient-104);}.cls-117{fill:url(#linear-gradient-105);}.cls-118{fill:url(#linear-gradient-106);}.cls-119{fill:url(#linear-gradient-107);}.cls-120{fill:url(#linear-gradient-108);}.cls-121{fill:url(#linear-gradient-109);}.cls-122{fill:url(#linear-gradient-110);}.cls-123{fill:url(#linear-gradient-111);}.cls-124{fill:url(#linear-gradient-112);}.cls-125{fill:url(#linear-gradient-113);}.cls-126{fill:url(#linear-gradient-114);}.cls-127{fill:url(#linear-gradient-115);}.cls-128{fill:url(#linear-gradient-116);}.cls-129{fill:url(#linear-gradient-117);}.cls-130{fill:url(#linear-gradient-118);}.cls-131{fill:url(#linear-gradient-119);}.cls-132{fill:url(#linear-gradient-120);}.cls-133{fill:url(#linear-gradient-121);}.cls-134{fill:url(#linear-gradient-122);}.cls-135{fill:url(#linear-gradient-123);}.cls-136{fill:url(#linear-gradient-124);}.cls-137{fill:url(#linear-gradient-125);}.cls-138{fill:url(#linear-gradient-126);}.cls-139{fill:url(#linear-gradient-127);}.cls-140{fill:url(#linear-gradient-128);}.cls-141{fill:url(#linear-gradient-129);}.cls-142{fill:url(#linear-gradient-130);}.cls-143{fill:url(#linear-gradient-131);}.cls-144{fill:url(#linear-gradient-132);}.cls-145{fill:url(#linear-gradient-133);}.cls-146{fill:url(#linear-gradient-134);}.cls-147{fill:url(#linear-gradient-135);}.cls-148{fill:url(#linear-gradient-136);}.cls-149{fill:url(#linear-gradient-137);}.cls-150{fill:url(#linear-gradient-138);}.cls-151{fill:url(#linear-gradient-139);}.cls-152{fill:url(#linear-gradient-140);}.cls-153{fill:url(#linear-gradient-141);}.cls-154{fill:url(#linear-gradient-142);}.cls-155{fill:url(#linear-gradient-143);}.cls-156{fill:url(#linear-gradient-144);}.cls-157{fill:url(#linear-gradient-145);}.cls-158{fill:url(#linear-gradient-146);}.cls-159{fill:url(#linear-gradient-147);}.cls-160{fill:url(#linear-gradient-148);}.cls-161{fill:#4a8ed8;}.cls-162{fill:url(#linear-gradient-149);}.cls-163{fill:url(#linear-gradient-150);}.cls-164{fill:url(#linear-gradient-151);}.cls-165{fill:url(#linear-gradient-152);}.cls-166{fill:url(#linear-gradient-153);}.cls-167{fill:url(#linear-gradient-154);}.cls-168{fill:url(#linear-gradient-155);}.cls-169{fill:url(#linear-gradient-156);}.cls-170{fill:url(#linear-gradient-157);}.cls-171{fill:url(#linear-gradient-158);}.cls-172{fill:url(#linear-gradient-159);}.cls-173{fill:url(#linear-gradient-160);}.cls-174{fill:url(#linear-gradient-161);}.cls-175{fill:url(#linear-gradient-162);}.cls-176{fill:url(#linear-gradient-163);}.cls-177{fill:url(#linear-gradient-164);}.cls-178{fill:url(#linear-gradient-165);}.cls-179{fill:url(#linear-gradient-166);}.cls-180{fill:url(#linear-gradient-167);}.cls-181{fill:url(#linear-gradient-168);}.cls-182{fill:url(#linear-gradient-169);}.cls-183{fill:url(#linear-gradient-170);}.cls-184{fill:url(#linear-gradient-171);}.cls-185{fill:url(#linear-gradient-172);}.cls-186{fill:url(#linear-gradient-173);}.cls-187{fill:url(#linear-gradient-174);}.cls-188{fill:url(#linear-gradient-175);}.cls-189{fill:url(#linear-gradient-176);}.cls-190{fill:url(#linear-gradient-177);}.cls-191{fill:url(#linear-gradient-178);}.cls-192{fill:url(#linear-gradient-179);}.cls-193{fill:url(#linear-gradient-180);}.cls-194{fill:url(#linear-gradient-181);}.cls-195{fill:url(#linear-gradient-182);}.cls-196{fill:url(#linear-gradient-183);}.cls-197{fill:url(#linear-gradient-184);}.cls-198{fill:url(#linear-gradient-185);}.cls-199{fill:url(#linear-gradient-186);}.cls-200{fill:url(#linear-gradient-187);}.cls-201{fill:url(#linear-gradient-188);}.cls-202{fill:url(#linear-gradient-189);}.cls-203{fill:url(#linear-gradient-190);}.cls-204{fill:url(#linear-gradient-191);}</style><linearGradient id="linear-gradient" x1="-1701" y1="3274.16" x2="542.04" y2="3274.16" gradientTransform="translate(542.04 3907.04) rotate(180)" gradientUnits="userSpaceOnUse"><stop offset="0" stop-color="#dae3fe"/><stop offset="1" stop-color="#e9effd"/></linearGradient><linearGradient id="linear-gradient-2" x1="1250.49" y1="651.35" x2="1761.11" y2="1166.86" gradientUnits="userSpaceOnUse"><stop offset="0" stop-color="#09005d"/><stop offset="1" stop-color="#1a0f91"/></linearGradient><linearGradient id="linear-gradient-3" x1="1517.99" y1="1282.79" x2="1485.33" y2="1134.79" gradientUnits="userSpaceOnUse"><stop offset="0" stop-color="#ff928e"/><stop offset="1" stop-color="#feb3b1"/></linearGradient><linearGradient id="linear-gradient-4" x1="5319.62" y1="273.71" x2="5328.97" y2="355.52" gradientTransform="translate(-3933.96)" gradientUnits="userSpaceOnUse"><stop offset="0" stop-color="#4042e2"/><stop offset="1" stop-color="#4f52ff"/></linearGradient><linearGradient id="linear-gradient-5" x1="1575.4" y1="928.25" x2="1498.73" y2="1114.91" xlink:href="#linear-gradient-3"/><linearGradient id="linear-gradient-6" x1="731.14" y1="1121.88" x2="810.61" y2="1277.32" gradientTransform="translate(808.21)" xlink:href="#linear-gradient-2"/><linearGradient id="linear-gradient-7" x1="5224.61" y1="284.58" x2="5233.96" y2="366.38" xlink:href="#linear-gradient-4"/><linearGradient id="linear-gradient-8" x1="5470.84" y1="1008.89" x2="5543.62" y2="1167.29" xlink:href="#linear-gradient-4"/><linearGradient id="linear-gradient-9" x1="1519.55" y1="951.16" x2="1552.22" y2="1031.16" xlink:href="#linear-gradient-3"/><linearGradient id="linear-gradient-10" x1="1547.93" y1="1353.52" x2="1599.26" y2="1348.19" gradientTransform="translate(-3933.96)" xlink:href="#linear-gradient-3"/><linearGradient id="linear-gradient-11" x1="1257.66" y1="644.25" x2="1768.28" y2="1159.76" xlink:href="#linear-gradient-2"/><linearGradient id="linear-gradient-12" x1="1548.9" y1="1362.82" x2="1600.24" y2="1357.49" gradientTransform="translate(-3933.96)" xlink:href="#linear-gradient-3"/><linearGradient id="linear-gradient-13" x1="1697.91" y1="1106.19" x2="1540.57" y2="1092.19" xlink:href="#linear-gradient-3"/><linearGradient id="linear-gradient-14" x1="5487.46" y1="1281.98" x2="5507.19" y2="1157.87" xlink:href="#linear-gradient-4"/><linearGradient id="linear-gradient-15" x1="5495.38" y1="1283.24" x2="5515.11" y2="1159.13" xlink:href="#linear-gradient-4"/><linearGradient id="linear-gradient-16" x1="5480.13" y1="1280.82" x2="5499.86" y2="1156.71" xlink:href="#linear-gradient-4"/><linearGradient id="linear-gradient-17" x1="5432.5" y1="1445.11" x2="5351.51" y2="1467.31" gradientTransform="translate(-3916.95 -92.73) rotate(-2.83)" xlink:href="#linear-gradient-2"/><linearGradient id="linear-gradient-18" x1="1383.1" y1="1102.26" x2="1473.1" y2="1040.26" xlink:href="#linear-gradient-2"/><linearGradient id="linear-gradient-19" x1="1275.52" y1="1117.55" x2="1703.94" y2="1117.55" gradientTransform="matrix(1, 0, 0, 1, 0, 0)" xlink:href="#linear-gradient"/><linearGradient id="linear-gradient-20" x1="1300.13" y1="1211.45" x2="1384.7" y2="1211.45" gradientTransform="matrix(1, 0, 0, 1, 0, 0)" xlink:href="#linear-gradient"/><linearGradient id="linear-gradient-21" x1="1309.89" y1="1211.45" x2="1394.47" y2="1211.45" gradientTransform="matrix(1, 0, 0, 1, 0, 0)" xlink:href="#linear-gradient"/><linearGradient id="linear-gradient-22" x1="1604.16" y1="1211.45" x2="1688.74" y2="1211.45" gradientTransform="matrix(1, 0, 0, 1, 0, 0)" xlink:href="#linear-gradient"/><linearGradient id="linear-gradient-23" x1="1613.93" y1="1211.45" x2="1698.5" y2="1211.45" gradientTransform="matrix(1, 0, 0, 1, 0, 0)" xlink:href="#linear-gradient"/><clipPath id="clip-path"><polygon class="cls-1" points="568.04 583.52 1122.27 918.07 1644.89 603.29 1644.89 115.94 611.56 115.94 568.04 583.52"/></clipPath><linearGradient id="linear-gradient-24" x1="1168.21" y1="107.79" x2="1063.28" y2="1206.43" gradientTransform="matrix(1, 0, 0, 1, 0, 0)" xlink:href="#linear-gradient-4"/><linearGradient id="linear-gradient-25" x1="1967.85" y1="601.64" x2="1970.56" y2="601.64" gradientTransform="matrix(1, 0, 0, 1, 0, 0)" xlink:href="#linear-gradient"/><linearGradient id="linear-gradient-26" x1="1968.91" y1="622.86" x2="1971.31" y2="622.86" gradientTransform="matrix(1, 0, 0, 1, 0, 0)" xlink:href="#linear-gradient"/><linearGradient id="linear-gradient-27" x1="1967.62" y1="644.09" x2="1970.76" y2="644.09" gradientTransform="matrix(1, 0, 0, 1, 0, 0)" xlink:href="#linear-gradient"/><linearGradient id="linear-gradient-28" x1="1964.57" y1="665.17" x2="1968.45" y2="665.17" gradientTransform="matrix(1, 0, 0, 1, 0, 0)" xlink:href="#linear-gradient"/><linearGradient id="linear-gradient-29" x1="1959.85" y1="685.96" x2="1964.44" y2="685.96" gradientTransform="matrix(1, 0, 0, 1, 0, 0)" xlink:href="#linear-gradient"/><linearGradient id="linear-gradient-30" x1="1953.51" y1="706.34" x2="1958.8" y2="706.34" gradientTransform="matrix(1, 0, 0, 1, 0, 0)" xlink:href="#linear-gradient"/><linearGradient id="linear-gradient-31" x1="1945.63" y1="726.21" x2="1951.6" y2="726.21" gradientTransform="matrix(1, 0, 0, 1, 0, 0)" xlink:href="#linear-gradient"/><linearGradient id="linear-gradient-32" x1="1936.29" y1="745.46" x2="1942.91" y2="745.46" gradientTransform="matrix(1, 0, 0, 1, 0, 0)" xlink:href="#linear-gradient"/><linearGradient id="linear-gradient-33" x1="1925.55" y1="763.97" x2="1932.81" y2="763.97" gradientTransform="matrix(1, 0, 0, 1, 0, 0)" xlink:href="#linear-gradient"/><linearGradient id="linear-gradient-34" x1="1913.47" y1="781.66" x2="1921.35" y2="781.66" gradientTransform="matrix(1, 0, 0, 1, 0, 0)" xlink:href="#linear-gradient"/><linearGradient id="linear-gradient-35" x1="1900.11" y1="798.43" x2="1908.59" y2="798.43" gradientTransform="matrix(1, 0, 0, 1, 0, 0)" xlink:href="#linear-gradient"/><linearGradient id="linear-gradient-36" x1="1885.53" y1="814.16" x2="1894.6" y2="814.16" gradientTransform="matrix(1, 0, 0, 1, 0, 0)" xlink:href="#linear-gradient"/><linearGradient id="linear-gradient-37" x1="1869.8" y1="828.75" x2="1879.42" y2="828.75" gradientTransform="matrix(1, 0, 0, 1, 0, 0)" xlink:href="#linear-gradient"/><linearGradient id="linear-gradient-38" x1="1852.98" y1="842.08" x2="1863.14" y2="842.08" gradientTransform="matrix(1, 0, 0, 1, 0, 0)" xlink:href="#linear-gradient"/><linearGradient id="linear-gradient-39" x1="1835.18" y1="854" x2="1845.82" y2="854" gradientTransform="matrix(1, 0, 0, 1, 0, 0)" xlink:href="#linear-gradient"/><linearGradient id="linear-gradient-40" x1="1816.48" y1="864.43" x2="1827.51" y2="864.43" gradientTransform="matrix(1, 0, 0, 1, 0, 0)" xlink:href="#linear-gradient"/><linearGradient id="linear-gradient-41" x1="1796.97" y1="873.23" x2="1808.37" y2="873.23" gradientTransform="matrix(1, 0, 0, 1, 0, 0)" xlink:href="#linear-gradient"/><linearGradient id="linear-gradient-42" x1="1776.81" y1="880.36" x2="1788.5" y2="880.36" gradientTransform="matrix(1, 0, 0, 1, 0, 0)" xlink:href="#linear-gradient"/><linearGradient id="linear-gradient-43" x1="1756.18" y1="885.89" x2="1768.11" y2="885.89" gradientTransform="matrix(1, 0, 0, 1, 0, 0)" xlink:href="#linear-gradient"/><linearGradient id="linear-gradient-44" x1="1735.2" y1="889.84" x2="1747.35" y2="889.84" gradientTransform="matrix(1, 0, 0, 1, 0, 0)" xlink:href="#linear-gradient"/><linearGradient id="linear-gradient-45" x1="1714" y1="892.26" x2="1726.33" y2="892.26" gradientTransform="matrix(1, 0, 0, 1, 0, 0)" xlink:href="#linear-gradient"/><linearGradient id="linear-gradient-46" x1="1692.71" y1="893.2" x2="1705.17" y2="893.2" gradientTransform="matrix(1, 0, 0, 1, 0, 0)" xlink:href="#linear-gradient"/><linearGradient id="linear-gradient-47" x1="1671.41" y1="892.72" x2="1683.98" y2="892.72" gradientTransform="matrix(1, 0, 0, 1, 0, 0)" xlink:href="#linear-gradient"/><linearGradient id="linear-gradient-48" x1="1650.19" y1="890.94" x2="1662.86" y2="890.94" gradientTransform="matrix(1, 0, 0, 1, 0, 0)" xlink:href="#linear-gradient"/><linearGradient id="linear-gradient-49" x1="1629.13" y1="887.9" x2="1641.86" y2="887.9" gradientTransform="matrix(1, 0, 0, 1, 0, 0)" xlink:href="#linear-gradient"/><linearGradient id="linear-gradient-50" x1="1608.28" y1="883.69" x2="1621.06" y2="883.69" gradientTransform="matrix(1, 0, 0, 1, 0, 0)" xlink:href="#linear-gradient"/><linearGradient id="linear-gradient-51" x1="1587.68" y1="878.36" x2="1600.51" y2="878.36" gradientTransform="matrix(1, 0, 0, 1, 0, 0)" xlink:href="#linear-gradient"/><linearGradient id="linear-gradient-52" x1="1567.4" y1="871.99" x2="1580.24" y2="871.99" gradientTransform="matrix(1, 0, 0, 1, 0, 0)" xlink:href="#linear-gradient"/><linearGradient id="linear-gradient-53" x1="1547.46" y1="864.62" x2="1560.32" y2="864.62" gradientTransform="matrix(1, 0, 0, 1, 0, 0)" xlink:href="#linear-gradient"/><linearGradient id="linear-gradient-54" x1="1527.91" y1="856.29" x2="1540.77" y2="856.29" gradientTransform="matrix(1, 0, 0, 1, 0, 0)" xlink:href="#linear-gradient"/><linearGradient id="linear-gradient-55" x1="1508.76" y1="847.05" x2="1521.63" y2="847.05" gradientTransform="matrix(1, 0, 0, 1, 0, 0)" xlink:href="#linear-gradient"/><linearGradient id="linear-gradient-56" x1="1490.13" y1="836.94" x2="1502.9" y2="836.94" gradientTransform="matrix(1, 0, 0, 1, 0, 0)" xlink:href="#linear-gradient"/><linearGradient id="linear-gradient-57" x1="1471.92" y1="826.07" x2="1484.61" y2="826.07" gradientTransform="matrix(1, 0, 0, 1, 0, 0)" xlink:href="#linear-gradient"/><linearGradient id="linear-gradient-58" x1="1454.13" y1="814.51" x2="1466.73" y2="814.51" gradientTransform="matrix(1, 0, 0, 1, 0, 0)" xlink:href="#linear-gradient"/><linearGradient id="linear-gradient-59" x1="1436.76" y1="802.34" x2="1449.27" y2="802.34" gradientTransform="matrix(1, 0, 0, 1, 0, 0)" xlink:href="#linear-gradient"/><linearGradient id="linear-gradient-60" x1="1419.78" y1="789.61" x2="1432.21" y2="789.61" gradientTransform="matrix(1, 0, 0, 1, 0, 0)" xlink:href="#linear-gradient"/><linearGradient id="linear-gradient-61" x1="1403.19" y1="776.37" x2="1415.55" y2="776.37" gradientTransform="matrix(1, 0, 0, 1, 0, 0)" xlink:href="#linear-gradient"/><linearGradient id="linear-gradient-62" x1="1386.96" y1="762.7" x2="1399.24" y2="762.7" gradientTransform="matrix(1, 0, 0, 1, 0, 0)" xlink:href="#linear-gradient"/><linearGradient id="linear-gradient-63" x1="1371.05" y1="748.64" x2="1383.28" y2="748.64" gradientTransform="matrix(1, 0, 0, 1, 0, 0)" xlink:href="#linear-gradient"/><linearGradient id="linear-gradient-64" x1="1355.46" y1="734.23" x2="1367.63" y2="734.23" gradientTransform="matrix(1, 0, 0, 1, 0, 0)" xlink:href="#linear-gradient"/><linearGradient id="linear-gradient-65" x1="1340.12" y1="719.55" x2="1352.27" y2="719.55" gradientTransform="matrix(1, 0, 0, 1, 0, 0)" xlink:href="#linear-gradient"/><linearGradient id="linear-gradient-66" x1="1325.02" y1="704.6" x2="1337.13" y2="704.6" gradientTransform="matrix(1, 0, 0, 1, 0, 0)" xlink:href="#linear-gradient"/><linearGradient id="linear-gradient-67" x1="1310.11" y1="689.45" x2="1322.21" y2="689.45" gradientTransform="matrix(1, 0, 0, 1, 0, 0)" xlink:href="#linear-gradient"/><linearGradient id="linear-gradient-68" x1="1295.37" y1="674.13" x2="1307.46" y2="674.13" gradientTransform="matrix(1, 0, 0, 1, 0, 0)" xlink:href="#linear-gradient"/><linearGradient id="linear-gradient-69" x1="1280.75" y1="658.69" x2="1292.85" y2="658.69" gradientTransform="matrix(1, 0, 0, 1, 0, 0)" xlink:href="#linear-gradient"/><linearGradient id="linear-gradient-70" x1="1266.22" y1="643.16" x2="1278.33" y2="643.16" gradientTransform="matrix(1, 0, 0, 1, 0, 0)" xlink:href="#linear-gradient"/><linearGradient id="linear-gradient-71" x1="1251.73" y1="627.58" x2="1263.88" y2="627.58" gradientTransform="matrix(1, 0, 0, 1, 0, 0)" xlink:href="#linear-gradient"/><linearGradient id="linear-gradient-72" x1="1237.26" y1="612" x2="1249.44" y2="612" gradientTransform="matrix(1, 0, 0, 1, 0, 0)" xlink:href="#linear-gradient"/><linearGradient id="linear-gradient-73" x1="1222.74" y1="596.45" x2="1234.98" y2="596.45" gradientTransform="matrix(1, 0, 0, 1, 0, 0)" xlink:href="#linear-gradient"/><linearGradient id="linear-gradient-74" x1="1208.14" y1="580.97" x2="1220.45" y2="580.97" gradientTransform="matrix(1, 0, 0, 1, 0, 0)" xlink:href="#linear-gradient"/><linearGradient id="linear-gradient-75" x1="1193.42" y1="565.6" x2="1205.82" y2="565.6" gradientTransform="matrix(1, 0, 0, 1, 0, 0)" xlink:href="#linear-gradient"/><linearGradient id="linear-gradient-76" x1="1178.55" y1="550.37" x2="1191.04" y2="550.37" gradientTransform="matrix(1, 0, 0, 1, 0, 0)" xlink:href="#linear-gradient"/><linearGradient id="linear-gradient-77" x1="1163.48" y1="535.33" x2="1176.08" y2="535.33" gradientTransform="matrix(1, 0, 0, 1, 0, 0)" xlink:href="#linear-gradient"/><linearGradient id="linear-gradient-78" x1="1148.18" y1="520.52" x2="1160.9" y2="520.52" gradientTransform="matrix(1, 0, 0, 1, 0, 0)" xlink:href="#linear-gradient"/><linearGradient id="linear-gradient-79" x1="1132.65" y1="505.99" x2="1145.44" y2="505.99" gradientTransform="matrix(1, 0, 0, 1, 0, 0)" xlink:href="#linear-gradient"/><linearGradient id="linear-gradient-80" x1="1116.82" y1="491.76" x2="1129.67" y2="491.76" gradientTransform="matrix(1, 0, 0, 1, 0, 0)" xlink:href="#linear-gradient"/><linearGradient id="linear-gradient-81" x1="1100.67" y1="477.92" x2="1113.59" y2="477.92" gradientTransform="matrix(1, 0, 0, 1, 0, 0)" xlink:href="#linear-gradient"/><linearGradient id="linear-gradient-82" x1="1084.16" y1="464.5" x2="1097.16" y2="464.5" gradientTransform="matrix(1, 0, 0, 1, 0, 0)" xlink:href="#linear-gradient"/><linearGradient id="linear-gradient-83" x1="1067.28" y1="451.55" x2="1080.36" y2="451.55" gradientTransform="matrix(1, 0, 0, 1, 0, 0)" xlink:href="#linear-gradient"/><linearGradient id="linear-gradient-84" x1="1049.99" y1="439.14" x2="1063.17" y2="439.14" gradientTransform="matrix(1, 0, 0, 1, 0, 0)" xlink:href="#linear-gradient"/><linearGradient id="linear-gradient-85" x1="1032.28" y1="427.31" x2="1045.57" y2="427.31" gradientTransform="matrix(1, 0, 0, 1, 0, 0)" xlink:href="#linear-gradient"/><linearGradient id="linear-gradient-86" x1="1014.16" y1="416.13" x2="1027.53" y2="416.13" gradientTransform="matrix(1, 0, 0, 1, 0, 0)" xlink:href="#linear-gradient"/><linearGradient id="linear-gradient-87" x1="995.64" y1="405.63" x2="1009.1" y2="405.63" gradientTransform="matrix(1, 0, 0, 1, 0, 0)" xlink:href="#linear-gradient"/><linearGradient id="linear-gradient-88" x1="976.76" y1="395.81" x2="990.3" y2="395.81" gradientTransform="matrix(1, 0, 0, 1, 0, 0)" xlink:href="#linear-gradient"/><linearGradient id="linear-gradient-89" x1="957.54" y1="386.69" x2="971.14" y2="386.69" gradientTransform="matrix(1, 0, 0, 1, 0, 0)" xlink:href="#linear-gradient"/><linearGradient id="linear-gradient-90" x1="938" y1="378.25" x2="951.67" y2="378.25" gradientTransform="matrix(1, 0, 0, 1, 0, 0)" xlink:href="#linear-gradient"/><linearGradient id="linear-gradient-91" x1="918.18" y1="370.52" x2="931.9" y2="370.52" gradientTransform="matrix(1, 0, 0, 1, 0, 0)" xlink:href="#linear-gradient"/><linearGradient id="linear-gradient-92" x1="898.1" y1="363.5" x2="911.87" y2="363.5" gradientTransform="matrix(1, 0, 0, 1, 0, 0)" xlink:href="#linear-gradient"/><linearGradient id="linear-gradient-93" x1="877.79" y1="357.18" x2="891.59" y2="357.18" gradientTransform="matrix(1, 0, 0, 1, 0, 0)" xlink:href="#linear-gradient"/><linearGradient id="linear-gradient-94" x1="857.27" y1="351.59" x2="871.1" y2="351.59" gradientTransform="matrix(1, 0, 0, 1, 0, 0)" xlink:href="#linear-gradient"/><linearGradient id="linear-gradient-95" x1="836.56" y1="346.72" x2="850.41" y2="346.72" gradientTransform="matrix(1, 0, 0, 1, 0, 0)" xlink:href="#linear-gradient"/><linearGradient id="linear-gradient-96" x1="815.71" y1="342.58" x2="829.57" y2="342.58" gradientTransform="matrix(1, 0, 0, 1, 0, 0)" xlink:href="#linear-gradient"/><linearGradient id="linear-gradient-97" x1="794.72" y1="339.17" x2="808.59" y2="339.17" gradientTransform="matrix(1, 0, 0, 1, 0, 0)" xlink:href="#linear-gradient"/><linearGradient id="linear-gradient-98" x1="773.63" y1="336.51" x2="787.5" y2="336.51" gradientTransform="matrix(1, 0, 0, 1, 0, 0)" xlink:href="#linear-gradient"/><linearGradient id="linear-gradient-99" x1="752.47" y1="334.59" x2="766.33" y2="334.59" gradientTransform="matrix(1, 0, 0, 1, 0, 0)" xlink:href="#linear-gradient"/><linearGradient id="linear-gradient-100" x1="731.26" y1="333.42" x2="745.09" y2="333.42" gradientTransform="matrix(1, 0, 0, 1, 0, 0)" xlink:href="#linear-gradient"/><linearGradient id="linear-gradient-101" x1="710.03" y1="333.02" x2="723.83" y2="333.02" gradientTransform="matrix(1, 0, 0, 1, 0, 0)" xlink:href="#linear-gradient"/><linearGradient id="linear-gradient-102" x1="688.8" y1="333.37" x2="702.57" y2="333.37" gradientTransform="matrix(1, 0, 0, 1, 0, 0)" xlink:href="#linear-gradient"/><linearGradient id="linear-gradient-103" x1="667.6" y1="334.5" x2="681.33" y2="334.5" gradientTransform="matrix(1, 0, 0, 1, 0, 0)" xlink:href="#linear-gradient"/><linearGradient id="linear-gradient-104" x1="646.46" y1="336.4" x2="660.14" y2="336.4" gradientTransform="matrix(1, 0, 0, 1, 0, 0)" xlink:href="#linear-gradient"/><linearGradient id="linear-gradient-105" x1="625.41" y1="339.08" x2="639.03" y2="339.08" gradientTransform="matrix(1, 0, 0, 1, 0, 0)" xlink:href="#linear-gradient"/><linearGradient id="linear-gradient-106" x1="604.48" y1="342.58" x2="618.03" y2="342.58" gradientTransform="matrix(1, 0, 0, 1, 0, 0)" xlink:href="#linear-gradient"/><linearGradient id="linear-gradient-107" x1="583.73" y1="346.96" x2="597.19" y2="346.96" gradientTransform="matrix(1, 0, 0, 1, 0, 0)" xlink:href="#linear-gradient"/><linearGradient id="linear-gradient-108" x1="563.21" y1="352.28" x2="576.57" y2="352.28" gradientTransform="matrix(1, 0, 0, 1, 0, 0)" xlink:href="#linear-gradient"/><linearGradient id="linear-gradient-109" x1="543.01" y1="358.58" x2="556.2" y2="358.58" gradientTransform="matrix(1, 0, 0, 1, 0, 0)" xlink:href="#linear-gradient"/><linearGradient id="linear-gradient-110" x1="523.18" y1="365.95" x2="536.16" y2="365.95" gradientTransform="matrix(1, 0, 0, 1, 0, 0)" xlink:href="#linear-gradient"/><linearGradient id="linear-gradient-111" x1="503.82" y1="374.43" x2="516.56" y2="374.43" gradientTransform="matrix(1, 0, 0, 1, 0, 0)" xlink:href="#linear-gradient"/><linearGradient id="linear-gradient-112" x1="485.04" y1="384.11" x2="497.5" y2="384.11" gradientTransform="matrix(1, 0, 0, 1, 0, 0)" xlink:href="#linear-gradient"/><linearGradient id="linear-gradient-113" x1="466.98" y1="395.03" x2="479.11" y2="395.03" gradientTransform="matrix(1, 0, 0, 1, 0, 0)" xlink:href="#linear-gradient"/><linearGradient id="linear-gradient-114" x1="449.79" y1="407.26" x2="461.55" y2="407.26" gradientTransform="matrix(1, 0, 0, 1, 0, 0)" xlink:href="#linear-gradient"/><linearGradient id="linear-gradient-115" x1="433.65" y1="420.83" x2="444.98" y2="420.83" gradientTransform="matrix(1, 0, 0, 1, 0, 0)" xlink:href="#linear-gradient"/><linearGradient id="linear-gradient-116" x1="418.73" y1="435.72" x2="429.58" y2="435.72" gradientTransform="matrix(1, 0, 0, 1, 0, 0)" xlink:href="#linear-gradient"/><linearGradient id="linear-gradient-117" x1="405.24" y1="451.89" x2="415.54" y2="451.89" gradientTransform="matrix(1, 0, 0, 1, 0, 0)" xlink:href="#linear-gradient"/><linearGradient id="linear-gradient-118" x1="393.45" y1="469.36" x2="403.12" y2="469.36" gradientTransform="matrix(1, 0, 0, 1, 0, 0)" xlink:href="#linear-gradient"/><linearGradient id="linear-gradient-119" x1="383.47" y1="487.93" x2="392.49" y2="487.93" gradientTransform="matrix(1, 0, 0, 1, 0, 0)" xlink:href="#linear-gradient"/><linearGradient id="linear-gradient-120" x1="375.32" y1="507.41" x2="383.68" y2="507.41" gradientTransform="matrix(1, 0, 0, 1, 0, 0)" xlink:href="#linear-gradient"/><linearGradient id="linear-gradient-121" x1="369" y1="527.59" x2="376.71" y2="527.59" gradientTransform="matrix(1, 0, 0, 1, 0, 0)" xlink:href="#linear-gradient"/><linearGradient id="linear-gradient-122" x1="364.49" y1="548.27" x2="371.56" y2="548.27" gradientTransform="matrix(1, 0, 0, 1, 0, 0)" xlink:href="#linear-gradient"/><linearGradient id="linear-gradient-123" x1="361.8" y1="569.31" x2="368.23" y2="569.31" gradientTransform="matrix(1, 0, 0, 1, 0, 0)" xlink:href="#linear-gradient"/><linearGradient id="linear-gradient-124" x1="360.9" y1="590.52" x2="366.69" y2="590.52" gradientTransform="matrix(1, 0, 0, 1, 0, 0)" xlink:href="#linear-gradient"/><linearGradient id="linear-gradient-125" x1="361.32" y1="611.76" x2="367.36" y2="611.76" gradientTransform="matrix(1, 0, 0, 1, 0, 0)" xlink:href="#linear-gradient"/><linearGradient id="linear-gradient-126" x1="363.44" y1="632.88" x2="369.92" y2="632.88" gradientTransform="matrix(1, 0, 0, 1, 0, 0)" xlink:href="#linear-gradient"/><linearGradient id="linear-gradient-127" x1="367.33" y1="653.72" x2="374.26" y2="653.72" gradientTransform="matrix(1, 0, 0, 1, 0, 0)" xlink:href="#linear-gradient"/><linearGradient id="linear-gradient-128" x1="373.01" y1="674.13" x2="380.39" y2="674.13" gradientTransform="matrix(1, 0, 0, 1, 0, 0)" xlink:href="#linear-gradient"/><linearGradient id="linear-gradient-129" x1="380.48" y1="693.93" x2="388.3" y2="693.93" gradientTransform="matrix(1, 0, 0, 1, 0, 0)" xlink:href="#linear-gradient"/><linearGradient id="linear-gradient-130" x1="389.72" y1="712.94" x2="398" y2="712.94" gradientTransform="matrix(1, 0, 0, 1, 0, 0)" xlink:href="#linear-gradient"/><linearGradient id="linear-gradient-131" x1="400.77" y1="730.96" x2="409.42" y2="730.96" gradientTransform="matrix(1, 0, 0, 1, 0, 0)" xlink:href="#linear-gradient"/><linearGradient id="linear-gradient-132" x1="413.57" y1="747.78" x2="422.56" y2="747.78" gradientTransform="matrix(1, 0, 0, 1, 0, 0)" xlink:href="#linear-gradient"/><linearGradient id="linear-gradient-133" x1="428.03" y1="763.19" x2="437.34" y2="763.19" gradientTransform="matrix(1, 0, 0, 1, 0, 0)" xlink:href="#linear-gradient"/><linearGradient id="linear-gradient-134" x1="444.02" y1="777.05" x2="453.58" y2="777.05" gradientTransform="matrix(1, 0, 0, 1, 0, 0)" xlink:href="#linear-gradient"/><linearGradient id="linear-gradient-135" x1="461.31" y1="789.25" x2="471.06" y2="789.25" gradientTransform="matrix(1, 0, 0, 1, 0, 0)" xlink:href="#linear-gradient"/><linearGradient id="linear-gradient-136" x1="479.72" y1="799.75" x2="489.59" y2="799.75" gradientTransform="matrix(1, 0, 0, 1, 0, 0)" xlink:href="#linear-gradient"/><linearGradient id="linear-gradient-137" x1="499.03" y1="808.53" x2="508.97" y2="808.53" gradientTransform="matrix(1, 0, 0, 1, 0, 0)" xlink:href="#linear-gradient"/><linearGradient id="linear-gradient-138" x1="519.07" y1="815.56" x2="529.03" y2="815.56" gradientTransform="matrix(1, 0, 0, 1, 0, 0)" xlink:href="#linear-gradient"/><linearGradient id="linear-gradient-139" x1="539.67" y1="820.85" x2="549.59" y2="820.85" gradientTransform="matrix(1, 0, 0, 1, 0, 0)" xlink:href="#linear-gradient"/><linearGradient id="linear-gradient-140" x1="560.66" y1="824.38" x2="570.5" y2="824.38" gradientTransform="matrix(1, 0, 0, 1, 0, 0)" xlink:href="#linear-gradient"/><linearGradient id="linear-gradient-141" x1="581.89" y1="826.14" x2="591.61" y2="826.14" gradientTransform="matrix(1, 0, 0, 1, 0, 0)" xlink:href="#linear-gradient"/><linearGradient id="linear-gradient-142" x1="603.23" y1="826.15" x2="612.78" y2="826.15" gradientTransform="matrix(1, 0, 0, 1, 0, 0)" xlink:href="#linear-gradient"/><linearGradient id="linear-gradient-143" x1="624.5" y1="824.32" x2="633.85" y2="824.32" gradientTransform="matrix(1, 0, 0, 1, 0, 0)" xlink:href="#linear-gradient"/><linearGradient id="linear-gradient-144" x1="645.58" y1="820.65" x2="654.65" y2="820.65" gradientTransform="matrix(1, 0, 0, 1, 0, 0)" xlink:href="#linear-gradient"/><linearGradient id="linear-gradient-145" x1="666.26" y1="815.12" x2="675" y2="815.12" gradientTransform="matrix(1, 0, 0, 1, 0, 0)" xlink:href="#linear-gradient"/><linearGradient id="linear-gradient-146" x1="686.35" y1="807.72" x2="694.72" y2="807.72" gradientTransform="matrix(1, 0, 0, 1, 0, 0)" xlink:href="#linear-gradient"/><linearGradient id="linear-gradient-147" x1="705.68" y1="798.43" x2="713.6" y2="798.43" gradientTransform="matrix(1, 0, 0, 1, 0, 0)" xlink:href="#linear-gradient"/><linearGradient id="linear-gradient-148" x1="724.01" y1="787.67" x2="730.29" y2="787.67" gradientTransform="matrix(1, 0, 0, 1, 0, 0)" xlink:href="#linear-gradient"/><linearGradient id="linear-gradient-149" x1="1806.71" y1="630.01" x2="1943.8" y2="1203.55" gradientTransform="matrix(1, 0, 0, 1, 0, 0)" xlink:href="#linear-gradient-4"/><linearGradient id="linear-gradient-150" x1="2032.61" y1="1412.75" x2="2034.92" y2="1343.37" gradientTransform="translate(-43.11)" xlink:href="#linear-gradient-4"/><linearGradient id="linear-gradient-151" x1="2115.04" y1="1235.19" x2="1972.09" y2="1347.43" gradientTransform="translate(-43.11)" xlink:href="#linear-gradient-2"/><linearGradient id="linear-gradient-152" x1="1175.68" y1="1236.9" x2="1167.92" y2="1304.62" gradientTransform="matrix(-1, 0, 0, 1, 3162.42, 0)" xlink:href="#linear-gradient-3"/><linearGradient id="linear-gradient-153" x1="1307.41" y1="1268.5" x2="1169.17" y2="1377.04" gradientTransform="matrix(-1, 0, 0, 1, 3162.42, 0)" xlink:href="#linear-gradient-2"/><linearGradient id="linear-gradient-154" x1="1267.55" y1="1455.66" x2="1269.86" y2="1386.28" gradientTransform="matrix(-1, 0, 0, 1, 3162.42, 0)" xlink:href="#linear-gradient-4"/><linearGradient id="linear-gradient-155" x1="1257.42" y1="1245.57" x2="1250.16" y2="1308.91" gradientTransform="matrix(-1, 0, 0, 1, 3162.42, 0)" xlink:href="#linear-gradient-3"/><linearGradient id="linear-gradient-156" x1="-599.22" y1="1243.54" x2="-590.52" y2="970.72" gradientTransform="matrix(-1, 0, 0, 1, 1350.59, 0)" xlink:href="#linear-gradient-2"/><linearGradient id="linear-gradient-157" x1="1898.31" y1="608.17" x2="2035.38" y2="1181.63" gradientTransform="matrix(1, 0, 0, 1, 0, 0)" xlink:href="#linear-gradient-4"/><linearGradient id="linear-gradient-158" x1="1965.25" y1="765.87" x2="1963.25" y2="855.21" xlink:href="#linear-gradient-3"/><linearGradient id="linear-gradient-159" x1="1949.7" y1="595.89" x2="2086.77" y2="1169.35" gradientTransform="matrix(1, 0, 0, 1, 0, 0)" xlink:href="#linear-gradient-4"/><linearGradient id="linear-gradient-160" x1="-622.16" y1="985.18" x2="-684.08" y2="1038.07" gradientTransform="matrix(-1, 0, 0, 1, 1350.59, 0)" xlink:href="#linear-gradient-3"/><linearGradient id="linear-gradient-161" x1="-7094.59" y1="68.33" x2="-7117.33" y2="92.36" gradientTransform="matrix(0.96, 0.29, -0.37, 1.22, 8665.29, 2756.72)" xlink:href="#linear-gradient-2"/><linearGradient id="linear-gradient-162" x1="1812.02" y1="795.41" x2="1814.57" y2="836.98" xlink:href="#linear-gradient-3"/><linearGradient id="linear-gradient-163" x1="2016.53" y1="761.07" x2="1926.53" y2="784.41" xlink:href="#linear-gradient-3"/><linearGradient id="linear-gradient-164" x1="-4708.88" y1="-3448.83" x2="-4643.66" y2="-3448.83" gradientTransform="matrix(-0.99, -0.16, -0.16, 0.99, -3220.73, 3440.76)" xlink:href="#linear-gradient-2"/><linearGradient id="linear-gradient-165" x1="-4745.92" y1="-3409.82" x2="-4703.04" y2="-3453.81" gradientTransform="matrix(-0.99, -0.16, -0.16, 0.99, -3220.73, 3440.76)" xlink:href="#linear-gradient-3"/><linearGradient id="linear-gradient-166" x1="1415.73" y1="810.65" x2="1440.96" y2="810.65" gradientTransform="matrix(1, 0, 0, 1, 0, 0)" xlink:href="#linear-gradient"/><linearGradient id="linear-gradient-167" x1="1403.96" y1="839.27" x2="1452.6" y2="839.27" gradientTransform="matrix(1, 0, 0, 1, 0, 0)" xlink:href="#linear-gradient"/><linearGradient id="linear-gradient-168" x1="1486.52" y1="835.2" x2="1726.69" y2="835.2" gradientTransform="matrix(1, 0, 0, 1, 0, 0)" xlink:href="#linear-gradient"/><linearGradient id="linear-gradient-169" x1="1488.98" y1="858.72" x2="1620.2" y2="858.72" gradientTransform="matrix(1, 0, 0, 1, 0, 0)" xlink:href="#linear-gradient"/><linearGradient id="linear-gradient-170" x1="1628.41" y1="858.72" x2="1726.83" y2="858.72" gradientTransform="matrix(1, 0, 0, 1, 0, 0)" xlink:href="#linear-gradient"/><linearGradient id="linear-gradient-171" x1="569.9" y1="757.29" x2="571.9" y2="1283.29" xlink:href="#linear-gradient-2"/><linearGradient id="linear-gradient-172" x1="549.59" y1="817.42" x2="605.78" y2="817.42" gradientTransform="matrix(1, 0, 0, 1, 0, 0)" xlink:href="#linear-gradient-4"/><linearGradient id="linear-gradient-173" x1="430.01" y1="1210.18" x2="460.4" y2="1210.18" gradientTransform="matrix(1, 0, 0, 1, 0, 0)" xlink:href="#linear-gradient-4"/><linearGradient id="linear-gradient-174" x1="1557.85" y1="1242.92" x2="1367.3" y2="1450.19" gradientTransform="translate(-1198.53)" xlink:href="#linear-gradient-2"/><linearGradient id="linear-gradient-175" x1="1496" y1="1258.31" x2="1512.92" y2="1258.31" gradientTransform="translate(-1198.53)" xlink:href="#linear-gradient-3"/><linearGradient id="linear-gradient-176" x1="1465.33" y1="1243.26" x2="1502.73" y2="1025.98" gradientTransform="translate(-1198.53)" xlink:href="#linear-gradient-2"/><linearGradient id="linear-gradient-177" x1="1515.1" y1="1203.62" x2="1324.55" y2="1410.88" gradientTransform="translate(-1198.53)" xlink:href="#linear-gradient-2"/><linearGradient id="linear-gradient-178" x1="1435" y1="1257.44" x2="1449.61" y2="1257.44" gradientTransform="translate(-1198.53)" xlink:href="#linear-gradient-3"/><linearGradient id="linear-gradient-179" x1="1423.04" y1="1235.98" x2="1460.44" y2="1018.7" gradientTransform="translate(-1198.53)" xlink:href="#linear-gradient-2"/><linearGradient id="linear-gradient-180" x1="1263.65" y1="1303.62" x2="1119.65" y2="1569.62" gradientTransform="translate(-1198.53)" gradientUnits="userSpaceOnUse"><stop offset="0" stop-color="#fe7062"/><stop offset="1" stop-color="#ff928e"/></linearGradient><linearGradient id="linear-gradient-181" x1="1565.65" y1="816.74" x2="1652.12" y2="816.74" gradientTransform="translate(-1198.53)" xlink:href="#linear-gradient-3"/><linearGradient id="linear-gradient-182" x1="7346.96" y1="802.24" x2="7404.99" y2="934.26" gradientTransform="matrix(-1, 0, 0, 1, 7781.29, 0)" xlink:href="#linear-gradient-3"/><linearGradient id="linear-gradient-183" x1="379.72" y1="841.97" x2="505.72" y2="697.97" xlink:href="#linear-gradient-3"/><linearGradient id="linear-gradient-184" x1="1207.06" y1="1272.98" x2="1063.06" y2="1538.99" xlink:href="#linear-gradient-180"/><linearGradient id="linear-gradient-185" x1="283.61" y1="819.71" x2="265.61" y2="955.71" xlink:href="#linear-gradient-3"/><linearGradient id="linear-gradient-186" x1="-3148.82" y1="1914.98" x2="-3208.82" y2="1803.98" gradientTransform="matrix(0.75, -0.67, 0.67, 0.75, 4541.44, -1597.11)" xlink:href="#linear-gradient-3"/><linearGradient id="linear-gradient-187" x1="-1827.59" y1="-4411.32" x2="-1694.64" y2="-4563.1" gradientTransform="matrix(0.75, -0.67, 0.67, 0.75, 4541.44, -1597.11)" xlink:href="#linear-gradient-2"/><linearGradient id="linear-gradient-188" x1="-3160.47" y1="1921.29" x2="-3220.47" y2="1810.29" gradientTransform="matrix(0.75, -0.67, 0.67, 0.75, 4541.44, -1597.11)" xlink:href="#linear-gradient-3"/><linearGradient id="linear-gradient-189" x1="1465.75" y1="1000.41" x2="1376.67" y2="929.15" gradientTransform="translate(-1198.53)" xlink:href="#linear-gradient-3"/><linearGradient id="linear-gradient-190" x1="-8566.4" y1="549.34" x2="-8589.14" y2="573.37" gradientTransform="matrix(0.96, 0.29, -0.37, 1.22, 8665.29, 2756.72)" xlink:href="#linear-gradient-2"/><linearGradient id="linear-gradient-191" x1="235.97" y1="968.66" x2="219.46" y2="980.99" xlink:href="#linear-gradient-3"/></defs><g class="cls-2"><g id="Capa_2" data-name="Capa 2"><g id="Illustration"><path class="cls-3" d="M25,578.69c26,46,67.38,84.77,99.24,127.82,92.07,124.4-3.72,270,38.3,404.08,36.61,116.85,188.89,148.17,300.2,152.92,187.56,8,374.91-4,555.74-54.86,125.48-35.3,251.13-81.51,383.39-84.31,135.21-2.86,262.4,51.42,393,77.09,143.43,28.19,315-2.42,349.56-162.59,21.43-99.23-36.24-190.61-41.64-288.31-7.15-129.34,121.79-200.32,138.47-321.23,10.52-76.24-28.78-144.35-80.06-199.51-54.11-58.2-126.87-109.62-210.35-114.4-87.26-5-165.14,40.82-246.69,62.7C1475,239.55,1345,34.56,1134,6c-95.12-12.9-212-6.78-298.38,37.5C755.34,84.64,716.37,176.1,626.29,203,531,231.39,443.7,174.57,353.1,156.42,259.34,137.64,170.65,171,112,244.1,55.06,315-6.51,408.37.56,502,2.7,530.4,11.92,555.48,25,578.69Z"/><path class="cls-4" d="M598.86,1235.44c-55.91,11.18-127.31-49.78-150.31-116.37-23.67-68.54,19.73-97.24,19.39-192.34-.38-108-56.57-124.31-93.74-269.92-8.39-32.85-56.92-223,3.23-258.6C433,365.26,589.26,459.82,616.64,580.85c19.52,86.3-40.83,122.53-17.78,223,20.22,88.2,73.38,89.47,93.74,174.56C717.4,1082,672.27,1220.76,598.86,1235.44Z"/><path class="cls-5" d="M594.8,1261.61c15.07-116.39-14.33-295.95-41.65-426.09-29.58-140.9-63.15-255.83-63.49-257L485,579.91c.34,1.15,33.86,115.92,63.4,256.64C575.65,966.31,605,1145.28,590,1261Z"/><path class="cls-6" d="M534.47,1222.44c73.34-38.21,98.44-169.43,56.75-212.08-28.17-28.82-68.56,1.49-107.53-28.38-49.76-38.14-13.16-110-52.28-203.12C398.12,699.58,318.27,624.56,271.6,640c-48.84,16.11-74.57,135.65-32.85,207.6,27.12,46.79,68.65,49.09,77.66,92.6,10.45,50.49-40.05,73.52-40.33,122.47C275.59,1150.56,437.44,1273,534.47,1222.44Z"/><path class="cls-4" d="M494.89,1256.05a3,3,0,0,0,2.69-4.29C400.35,1051.4,371.84,819,371.56,816.65a3,3,0,1,0-5.93.71c.27,2.33,28.91,235.76,126.57,437A3,3,0,0,0,494.89,1256.05Z"/><path class="cls-7" d="M295.41,876.84a1.42,1.42,0,0,0,1.13-2.3c-30.69-39.4-64.71-98.58-52.46-156.82,7.29-34.69,27.81-52.78,28-53a1.43,1.43,0,1,0-1.87-2.16c-.87.76-21.46,18.91-29,54.53-6.88,32.74-3.27,86.93,53,159.16A1.44,1.44,0,0,0,295.41,876.84Z"/><path class="cls-8" d="M541.08,1205a1.43,1.43,0,0,0,1.18-.62c47.16-68.84,63.25-122,47.8-158.09-13.73-32.06-48.4-38-48.75-38.08a1.43,1.43,0,1,0-.46,2.82c.34,0,33.51,5.8,46.6,36.42,15,35.11-1,87.36-47.54,155.31a1.43,1.43,0,0,0,.37,2A1.38,1.38,0,0,0,541.08,1205Z"/><path class="cls-4" d="M1656.21,1235.44c55.91,11.18,127.31-49.78,150.31-116.37,23.67-68.54-19.73-97.24-19.39-192.34.38-108,56.57-124.31,93.74-269.92,8.39-32.85,56.92-223-3.23-258.6-55.62-32.95-211.83,61.61-239.21,182.64-19.52,86.3,40.83,122.53,17.78,223-20.23,88.2-73.38,89.47-93.75,174.56C1537.67,1082,1582.8,1220.76,1656.21,1235.44Z"/><path class="cls-5" d="M1660.27,1261.61c-15.07-116.39,14.33-295.95,41.65-426.09,29.58-140.9,63.15-255.83,63.48-257l4.66,1.36c-.34,1.15-33.86,115.92-63.4,256.64-27.24,129.76-56.57,308.73-41.58,424.44Z"/><path class="cls-6" d="M1720.6,1222.44c-73.34-38.21-98.45-169.43-56.76-212.08,28.17-28.82,68.57,1.49,107.54-28.38,49.76-38.14,13.15-110,52.27-203.12,33.3-79.28,113.15-154.3,159.81-138.9,48.85,16.11,74.58,135.65,32.86,207.6-27.13,46.79-68.65,49.09-77.66,92.6-10.46,50.49,40,73.52,40.32,122.47C1979.48,1150.56,1817.62,1273,1720.6,1222.44Z"/><path class="cls-4" d="M1760.18,1256.05a3.06,3.06,0,0,1-1.31-.3,3,3,0,0,1-1.38-4c97.23-200.36,125.74-432.79,126-435.11a3,3,0,1,1,5.93.71c-.28,2.33-28.91,235.76-126.57,437A3,3,0,0,1,1760.18,1256.05Z"/><path class="cls-7" d="M1959.66,876.84a1.42,1.42,0,0,1-1.13-2.3c30.69-39.4,64.71-98.58,52.46-156.82-7.29-34.69-27.82-52.78-28-53a1.43,1.43,0,1,1,1.87-2.16c.87.76,21.46,18.91,29,54.53,6.88,32.74,3.27,86.93-53,159.16A1.42,1.42,0,0,1,1959.66,876.84Z"/><path class="cls-8" d="M1714,1205a1.42,1.42,0,0,1-1.18-.62c-47.17-68.84-63.25-122-47.81-158.09,13.74-32.06,48.41-38,48.76-38.08a1.43,1.43,0,0,1,.45,2.82c-.33,0-33.5,5.8-46.6,36.42-15,35.11,1,87.36,47.55,155.31a1.43,1.43,0,0,1-.37,2A1.4,1.4,0,0,1,1714,1205Z"/><path class="cls-9" d="M517.93,553.24v613.43c0,45.14,39.65,81.73,88.56,81.73H1636.55c48.91,0,88.55-36.59,88.55-81.73V553.24Z"/><path class="cls-10" d="M1423.94,370.59,1162.11,212.17c-25.47-15.41-55.72-15.41-81.19,0L819.1,370.54,516.68,553.48,819.1,736l302.42,182.48,302.42-182.68,302.42-182.28Z"/><g class="cls-11"><path class="cls-12" d="M541.58,1221.89a2.08,2.08,0,0,1-1.4-.53,2.11,2.11,0,0,1-.18-3L917.19,794a2.11,2.11,0,1,1,3.16,2.81L543.17,1221.18A2.12,2.12,0,0,1,541.58,1221.89Z"/><path class="cls-12" d="M1701.45,1221.89a2.12,2.12,0,0,1-1.58-.71L1322.68,796.81a2.12,2.12,0,1,1,3.17-2.81L1703,1218.37a2.11,2.11,0,0,1-1.59,3.52Z"/></g><path class="cls-13" d="M1519.41,931.9S1507,917,1523.88,907.8s43.47.89,46.83,20.44,20.16,7.94,27.49,3.66,27.79-10.08,33,12.22c2.06,8.83-.55,20.11,3.29,28.33,5.27,11.31,22.45,8.39,31.83,12.71,12.19,5.63,18.56,16.51,12.22,29.2-9.78,19.54-29,32-18.63,49s-31.46,55.18-45.81,19.75-36.65-29.43-54.67-31.66-27.18-17.82-22.29-33.7-1.53-25.34-8.25-32.06S1499.56,949.92,1519.41,931.9Z"/><path class="cls-14" d="M1493.24,1122s-13.56,2.11-28.81,12.3a7.62,7.62,0,0,0-3.36,7.27c1.83,14.46,9.33,61.28,34.09,107a11.47,11.47,0,0,1,1.11,7.9l-4.3,20-8,7.48h20.55l13.68-37-5.85-1.85a11.07,11.07,0,0,1-7.73-10.37L1504,1195c.59-17.7-10.85-29.9-10.85-29.9l32.82-1.6Z"/><path class="cls-15" d="M1476,1287.56c-1.87,2.45,20.14,5.68,31.26.33,0,0,15.41-26.83,15.41-40.64,0,0-1.22-2.81-10.27-2.17,0,0-5.18,31.76-10.64,35.31s-15.29.36-15.29.36S1478.73,1284,1476,1287.56Z"/><path class="cls-16" d="M1521.77,1165.68c-.18-.31-35.33-4.23-35.33-4.23s1.15,10.69-2.45,25.4-55.21,78.47-55.21,78.47l5.41,17.16c-16.73,5.83-33.19,6.76-49.39,3l33.54-20.13s31.39-107,50.62-126.06l35.24-12.19Z"/><path class="cls-17" d="M1600.61,1103.43s20.25,30.13,21.92,43.87-5.55,19.33-26.8,20.25-78,.91-78,.91l-48.43-41.39s35.29-12.59,44.47-16.15S1600.61,1103.43,1600.61,1103.43Z"/><path class="cls-18" d="M1432.15,1276.7s5.82,5.64,1.89,11.92c0,0-46.16,8.18-58.69,4.47,0,0,2.6-5.94,16.71-12.7l-1,.8a1.69,1.69,0,0,0,1.11,3C1401.43,1283.69,1420.68,1282,1432.15,1276.7Z"/><path class="cls-19" d="M1545.83,1099.44s-23.59-22.46-35.2-37.33a31.59,31.59,0,0,1-5.34-28.41c5.3-17.86,14.72-36.35,15.58-39.23,1.32-4.41,27.76-4.23,27.76-4.23s52,33.78,72.49,91l-23,7.15s-13.59-22.8-27-37.29c0,0,23.23,30.69,24,43.25Z"/><path class="cls-20" d="M1517.67,969.81c.28.91,7.18,23.8,7.72,24.27s15.14,1.26,22-3.43l-11.66-24.41Z"/><path class="cls-21" d="M1529,921.74S1516.55,927,1508.08,945s-2.15,26.32,5.8,27.47,19.83,1,32.41-10.67S1545.21,915.5,1529,921.74Z"/><path class="cls-22" d="M1537.83,952.2s9.41-26.35-13.95-26.66l-5.5,3.84s-8.57-14.61,5.5-21.58,35-.76,41,18.19,2.48,31.19-7.48,40.25-14.06-1.21-14.06-1.21,5.42-8.48,3.22-13-7.31.94-7.31.94Z"/><path class="cls-23" d="M1535.35,956.4s4.75-13.57,11.09-8.16-5.15,12.53-9.65,14.84Z"/><path class="cls-24" d="M1497.78,1101.11l17.33-16.7,24,10.13s23.87,3.69,37.52,0l13.66-3.7,30.86-9.61,4.85,13.7a8.25,8.25,0,0,1-3,9.48,54.53,54.53,0,0,1-7.8,4.85C1611.1,1111,1515,1108,1515,1108Z"/><g class="cls-11"><path class="cls-6" d="M1623.67,953.8l-.82-.09c.71-6.56-.38-10.92-3.33-13.35-5.85-4.82-18-1.05-28.7,2.27-5.43,1.69-10.55,3.28-14.14,3.47a8.19,8.19,0,0,1-6.54-2.17c-2.92-2.9-2.71-7.6-2.7-7.8l.83,0s-.2,4.54,2.45,7.19a7.47,7.47,0,0,0,5.91,1.92c3.49-.18,8.57-1.76,13.94-3.43,10.91-3.39,23.28-7.23,29.47-2.13C1623.23,942.34,1624.41,947,1623.67,953.8Z"/></g><g class="cls-11"><path class="cls-6" d="M1649.18,1052.49c-1.93-7.93,3.28-14.63,9.31-22.39,4.35-5.59,9.27-11.92,11.9-19.52a11.14,11.14,0,0,0-.81-9.89c-5.61-9.17-24.26-11.84-24.44-11.86l.11-.82c.78.11,19.21,2.75,25,12.25a11.89,11.89,0,0,1,.89,10.59c-2.68,7.73-7.65,14.12-12,19.75-5.9,7.59-11,14.15-9.16,21.7Z"/></g><rect class="cls-25" x="1556.07" y="1187.8" width="9.13" height="98.72"/><path class="cls-26" d="M1600.61,1288.42h-79.95a5.94,5.94,0,0,1,5.94-5.94h68.07a5.94,5.94,0,0,1,5.94,5.94Z"/><rect class="cls-27" x="1511.95" y="1165.68" width="100.53" height="28.51" rx="9.82"/><path class="cls-28" d="M1563.36,1109h-.23l-100.53-.11a4.5,4.5,0,0,1,0-9l100.53.11a4.5,4.5,0,0,1,.22,9Z"/><path class="cls-29" d="M1372.23,1017.71H1456a16,16,0,0,1,14.43,9.15l38.71,82.07h-104a9.7,9.7,0,0,1-9-6.13l-30-75.94A6.69,6.69,0,0,1,1372.23,1017.71Z"/><path class="cls-30" d="M1703.87,1112.66a3.71,3.71,0,0,0-.88-3.21,4.24,4.24,0,0,0-3.2-1.42H1280.3a4.87,4.87,0,0,0-4,2.07,4.24,4.24,0,0,0-.31,4.28l4.55,9.23a6.4,6.4,0,0,0,5.78,3.46h410.62a4.75,4.75,0,0,0,4.74-3.66Z"/><path class="cls-31" d="M1303.81,1307a3.54,3.54,0,0,1-1.45-.31,3.78,3.78,0,0,1-1.93-4.94l77.21-183.64a3.65,3.65,0,0,1,4.83-2,3.81,3.81,0,0,1,1.93,4.95l-77.21,183.64A3.68,3.68,0,0,1,1303.81,1307Z"/><path class="cls-32" d="M1390.79,1307a3.68,3.68,0,0,1-3.39-2.28l-77.21-183.64a3.81,3.81,0,0,1,1.93-4.95,3.65,3.65,0,0,1,4.84,2l77.21,183.64a3.79,3.79,0,0,1-1.93,4.94A3.57,3.57,0,0,1,1390.79,1307Z"/><path class="cls-33" d="M1607.84,1307a3.61,3.61,0,0,1-1.45-.31,3.79,3.79,0,0,1-1.93-4.94l77.21-183.64a3.66,3.66,0,0,1,4.84-2,3.81,3.81,0,0,1,1.93,4.95l-77.21,183.64A3.68,3.68,0,0,1,1607.84,1307Z"/><path class="cls-34" d="M1694.82,1307a3.68,3.68,0,0,1-3.38-2.28l-77.21-183.64a3.81,3.81,0,0,1,1.93-4.95,3.64,3.64,0,0,1,4.83,2l77.21,183.64a3.79,3.79,0,0,1-1.92,4.94A3.62,3.62,0,0,1,1694.82,1307Z"/><g class="cls-35"><path class="cls-6" d="M1497,256.4H652c-14.9,0-27.24,12.93-27.24,27.83V970h993.44V379.53Z"/><path class="cls-4" d="M1617.77,379.53l-110.88,1a9.81,9.81,0,0,1-7.33-3.19c-2.09-2.08-2.3-4.89-2.3-7.83V257.24Z"/><path class="cls-36" d="M1340.68,579q0,38.67-12.35,70.76t-34.91,50.34q-22.56,18.27-52.37,18.27-19.87,0-35.18-9.54a54.6,54.6,0,0,1-22-25.11h-4.3q-29,34.65-73.85,34.65-47.52,0-74.92-28.6t-27.39-78.28q0-56.66,36-91.3t94-34.64a324.58,324.58,0,0,1,50.89,4.43q27.79,4.43,45.78,10.61l-6.17,131.31q0,37.32,20.4,37.32,17.19,0,27.4-25.1t10.2-65.66q0-43.23-18-76.4a122.16,122.16,0,0,0-50.62-50.62Q1180.64,434,1138.74,434q-54.24,0-94.25,22.29t-61.36,64.31q-21.36,42-21.35,97.08,0,74.11,39.61,113.72T1116.18,771q28.47,0,62.57-6.31a414.58,414.58,0,0,0,67.14-18.4v51.56q-57.47,24.44-127.56,24.44-102,0-159.1-53.71t-57.07-149.3q0-66.33,29.14-120.44t83-84.86q53.84-30.74,123.92-30.74,59.08,0,105.54,24.16t71.7,68.75Q1340.67,520.69,1340.68,579Zm-275,33.56q0,56.67,46.19,56.66,24.16,0,36.79-17t15.3-55.45l3.49-59.35a147,147,0,0,0-30.88-3q-33.55,0-52.23,21T1065.7,612.52Z"/></g><path class="cls-37" d="M1967.85,598.55l.53,6.32v0a1.09,1.09,0,1,0,2.18-.18h0l-.59-6.38a1.06,1.06,0,0,0-2.12.19Z"/><path class="cls-38" d="M1968.94,619.67l0,6.34v0a1.2,1.2,0,1,0,2.4,0h0l0-6.4a1.17,1.17,0,0,0-2.34,0Z"/><path class="cls-39" d="M1968.2,640.8l-.57,6.31v0a1.32,1.32,0,0,0,2.62.23h0l.51-6.39a1.28,1.28,0,0,0-2.55-.22Z"/><path class="cls-40" d="M1965.69,661.79,1964.6,668v0a1.43,1.43,0,0,0,2.81.49v0l1-6.32a1.39,1.39,0,0,0-2.74-.47Z"/><path class="cls-41" d="M1961.48,682.5l-1.58,6.13v0a1.54,1.54,0,0,0,1.11,1.87,1.52,1.52,0,0,0,1.86-1.1v0l1.53-6.21a1.5,1.5,0,0,0-2.91-.74Z"/><path class="cls-42" d="M1955.66,702.8l-2.05,6v0a1.64,1.64,0,0,0,3.1,1.06h0l2-6.09a1.61,1.61,0,0,0-3-1Z"/><path class="cls-43" d="M1948.29,722.6l-2.5,5.83,0,0a1.75,1.75,0,0,0,3.22,1.38h0l2.47-5.93a1.72,1.72,0,0,0-3.16-1.34Z"/><path class="cls-44" d="M1939.45,741.78l-2.93,5.62,0,0a1.86,1.86,0,1,0,3.3,1.72h0l2.9-5.72a1.82,1.82,0,0,0-3.24-1.68Z"/><path class="cls-45" d="M1929.2,760.24l-3.33,5.38,0,0a2,2,0,0,0,3.35,2.07v0l3.33-5.49a1.93,1.93,0,0,0-3.3-2Z"/><path class="cls-46" d="M1917.62,777.88,1913.9,783l0,0a2.08,2.08,0,0,0,3.36,2.45v0l3.73-5.23a2,2,0,0,0-3.32-2.39Z"/><path class="cls-47" d="M1904.76,794.6l-4.09,4.82,0,0a2.19,2.19,0,1,0,3.34,2.84v0l4.11-4.94a2.15,2.15,0,0,0-3.29-2.77Z"/><path class="cls-48" d="M1890.69,810.29l-4.45,4.5,0,0a2.29,2.29,0,0,0,3.26,3.23l0,0,4.48-4.62a2.26,2.26,0,0,0-3.23-3.16Z"/><path class="cls-49" d="M1875.46,824.86l-4.78,4.13,0,0a2.41,2.41,0,0,0,3.15,3.64h0l4.82-4.26a2.37,2.37,0,0,0-3.12-3.57Z"/><path class="cls-50" d="M1859.15,838.18l-5.09,3.73,0,0a2.51,2.51,0,0,0,3,4h0l5.15-3.86a2.48,2.48,0,0,0-3-4Z"/><path class="cls-51" d="M1841.84,850.14l-5.37,3.31,0,0a2.59,2.59,0,1,0,2.72,4.42h0l5.46-3.41a2.58,2.58,0,0,0-2.71-4.38Z"/><path class="cls-52" d="M1823.63,860.64l-5.63,2.84-.06,0a2.66,2.66,0,1,0,2.4,4.74h0l5.73-2.94a2.64,2.64,0,0,0-2.39-4.7Z"/><path class="cls-53" d="M1804.6,869.53l-5.85,2.35-.07,0a2.72,2.72,0,0,0,2,5.05h0l6-2.43a2.7,2.7,0,0,0-2-5Z"/><path class="cls-54" d="M1784.86,876.78l-6,1.86-.07,0a2.77,2.77,0,1,0,1.64,5.3h0l6.14-1.94a2.75,2.75,0,0,0-1.64-5.26Z"/><path class="cls-55" d="M1764.61,882.43l-6.16,1.39h-.06a2.84,2.84,0,0,0,1.25,5.54h0l6.27-1.46a2.82,2.82,0,0,0-1.26-5.5Z"/><path class="cls-56" d="M1744,886.51l-6.25.93h-.06a2.9,2.9,0,1,0,.85,5.73h0l6.36-1a2.88,2.88,0,0,0-.86-5.7Z"/><path class="cls-57" d="M1723.1,889.07l-6.3.47h-.06a3,3,0,0,0,.45,5.91h0l6.41-.52a2.94,2.94,0,0,0-.46-5.87Z"/><path class="cls-58" d="M1702.08,890.15l-6.31.05h-.06a3,3,0,0,0,0,6h0l6.44-.09a3,3,0,0,0-.07-6Z"/><path class="cls-59" d="M1681,889.84l-6.3-.36h-.06a3.08,3.08,0,0,0-.35,6.16h0l6.42.33a3.07,3.07,0,0,0,.33-6.13Z"/><path class="cls-60" d="M1660,888.2l-6.28-.74h0a3.15,3.15,0,1,0-.74,6.25h0l6.39.71a3.13,3.13,0,0,0,.72-6.21Z"/><path class="cls-61" d="M1639.17,885.31l-6.22-1.1h-.06a3.21,3.21,0,0,0-1.11,6.32h0l6.33,1.09a3.19,3.19,0,0,0,1.1-6.29Z"/><path class="cls-62" d="M1618.5,881.24l-6.15-1.43-.06,0a3.27,3.27,0,0,0-1.48,6.37h0l6.26,1.43a3.25,3.25,0,0,0,1.47-6.33Z"/><path class="cls-63" d="M1598.07,876.07,1592,874.3h0a3.33,3.33,0,1,0-1.86,6.4h0l6.19,1.76a3.31,3.31,0,0,0,1.83-6.37Z"/><path class="cls-64" d="M1577.92,869.83l-6-2.06,0,0a3.39,3.39,0,1,0-2.22,6.41h0l6.09,2.06a3.37,3.37,0,0,0,2.18-6.38Z"/><path class="cls-65" d="M1558.12,862.61l-5.87-2.36,0,0a3.45,3.45,0,0,0-2.57,6.41h0l6,2.36a3.43,3.43,0,0,0,2.54-6.38Z"/><path class="cls-66" d="M1538.68,854.43l-5.75-2.63,0,0a3.51,3.51,0,0,0-2.92,6.39h0l5.86,2.64a3.5,3.5,0,0,0,2.89-6.37Z"/><path class="cls-67" d="M1519.65,845.34l-5.63-2.9,0,0a3.58,3.58,0,1,0-3.28,6.36h0l5.74,2.92a3.56,3.56,0,0,0,3.24-6.34Z"/><path class="cls-68" d="M1501.05,835.39l-5.49-3.13,0,0a3.6,3.6,0,0,0-3.57,6.26h0l5.57,3.17a3.59,3.59,0,0,0,3.55-6.25Z"/><path class="cls-69" d="M1482.87,824.68l-5.38-3.35,0,0a3.62,3.62,0,1,0-3.83,6.14h0l5.46,3.39a3.61,3.61,0,0,0,3.81-6.14Z"/><path class="cls-70" d="M1465.1,813.27l-5.26-3.54,0,0a3.64,3.64,0,1,0-4.07,6h0l5.32,3.57a3.63,3.63,0,1,0,4.06-6Z"/><path class="cls-71" d="M1447.73,801.24l-5.13-3.72,0,0a3.66,3.66,0,0,0-4.3,5.92h0l5.19,3.75a3.65,3.65,0,0,0,4.28-5.92Z"/><path class="cls-72" d="M1430.76,788.64l-5-3.88,0,0a3.68,3.68,0,1,0-4.51,5.82h0l5.07,3.92a3.68,3.68,0,1,0,4.49-5.82Z"/><path class="cls-73" d="M1414.17,775.53l-4.91-4h0a3.7,3.7,0,1,0-4.69,5.72h0l5,4.06a3.7,3.7,0,0,0,4.68-5.73Z"/><path class="cls-74" d="M1397.94,762l-4.81-4.15,0,0a3.72,3.72,0,0,0-4.86,5.64h0l4.85,4.18A3.72,3.72,0,0,0,1398,762Z"/><path class="cls-75" d="M1382,748l-4.71-4.27h0a3.74,3.74,0,1,0-5,5.55h0l4.76,4.29a3.74,3.74,0,0,0,5-5.55Z"/><path class="cls-76" d="M1366.43,733.68l-4.62-4.36h0a3.76,3.76,0,1,0-5.16,5.48h0l4.66,4.38a3.76,3.76,0,0,0,5.14-5.48Z"/><path class="cls-77" d="M1351.11,719.06l-4.55-4.44h0a3.78,3.78,0,0,0-5.28,5.42h0l4.59,4.46a3.78,3.78,0,0,0,5.26-5.42Z"/><path class="cls-78" d="M1336,704.18l-4.49-4.52h0a3.8,3.8,0,0,0-5.39,5.37h0l4.52,4.53a3.8,3.8,0,1,0,5.37-5.37Z"/><path class="cls-79" d="M1321.12,689.08l-4.44-4.58h0a3.82,3.82,0,0,0-5.49,5.32h0l4.47,4.58a3.82,3.82,0,1,0,5.47-5.33Z"/><path class="cls-80" d="M1306.4,673.8l-4.4-4.62a3.84,3.84,0,1,0-5.58,5.29h0l4.42,4.62a3.84,3.84,0,0,0,5.55-5.3Z"/><path class="cls-81" d="M1291.8,658.38l-4.36-4.65a3.87,3.87,0,1,0-5.65,5.28h0l4.38,4.65a3.86,3.86,0,0,0,5.62-5.29Z"/><path class="cls-82" d="M1277.29,642.86l-4.33-4.67a3.88,3.88,0,1,0-5.7,5.28h0l4.35,4.66a3.87,3.87,0,1,0,5.67-5.28Z"/><path class="cls-83" d="M1262.84,627.27l-4.33-4.68a3.91,3.91,0,0,0-5.74,5.3h0l4.34,4.68a3.9,3.9,0,0,0,5.72-5.31Z"/><path class="cls-84" d="M1248.4,611.67l-4.34-4.67a3.92,3.92,0,0,0-5.76,5.33h0l4.34,4.66a3.92,3.92,0,1,0,5.75-5.33Z"/><path class="cls-85" d="M1233.92,596.09l-4.35-4.66a3.94,3.94,0,0,0-5.77,5.38h0l4.35,4.65a3.94,3.94,0,0,0,5.76-5.38Z"/><path class="cls-86" d="M1219.37,580.57l-4.38-4.64a4,4,0,1,0-5.77,5.45h0l4.39,4.62a4,4,0,1,0,5.75-5.44Z"/><path class="cls-87" d="M1204.71,565.14l-4.43-4.6a4,4,0,0,0-5.74,5.52h0l4.42,4.58h0a4,4,0,1,0,5.73-5.52Z"/><path class="cls-88" d="M1189.89,549.85l-4.48-4.56a4,4,0,1,0-5.71,5.62h0l4.46,4.53h0a4,4,0,0,0,5.7-5.61Z"/><path class="cls-89" d="M1174.89,534.72l-4.55-4.5a4,4,0,0,0-5.66,5.73h0l0,0,4.52,4.46h0a4,4,0,0,0,5.65-5.72Z"/><path class="cls-90" d="M1159.65,519.81l-4.62-4.42a4,4,0,1,0-5.6,5.84h0l4.6,4.39,0,0a4,4,0,0,0,5.58-5.85Z"/><path class="cls-91" d="M1144.14,505.18l-4.72-4.34a4,4,0,1,0-5.46,6h0l4.68,4.31h0a4,4,0,0,0,5.47-5.94Z"/><path class="cls-92" d="M1128.31,490.86l-4.82-4.23a4,4,0,1,0-5.3,6h0l4.77,4.2,0,0a4,4,0,0,0,5.32-6Z"/><path class="cls-93" d="M1112.15,476.9l-4.91-4.11a4,4,0,1,0-5.14,6.14l0,0L1107,483l0,0a4,4,0,0,0,5.16-6.14Z"/><path class="cls-94" d="M1095.65,463.35l-5-4a4,4,0,0,0-5,6.26h0l5,3.94,0,0a4,4,0,1,0,5-6.25Z"/><path class="cls-95" d="M1078.76,450.27l-5.14-3.82a4,4,0,1,0-4.74,6.38l0,0,5.08,3.78,0,0a4,4,0,1,0,4.75-6.37Z"/><path class="cls-96" d="M1061.47,437.71l-5.27-3.65a4,4,0,1,0-4.51,6.5l0,0,5.19,3.62,0,0a4,4,0,1,0,4.53-6.5Z"/><path class="cls-97" d="M1043.76,425.73l-5.41-3.48a3.94,3.94,0,0,0-4.26,6.63l0,0,5.32,3.44,0,0a3.95,3.95,0,1,0,4.28-6.63Z"/><path class="cls-98" d="M1025.61,414.38l-5.53-3.27a3.93,3.93,0,0,0-4,6.76l0,0,5.45,3.23,0,0a3.93,3.93,0,0,0,4-6.76Z"/><path class="cls-99" d="M1007.06,403.72l-5.64-3.06a3.91,3.91,0,1,0-3.74,6.87l0,0,5.55,3,0,0a3.91,3.91,0,0,0,3.75-6.87Z"/><path class="cls-100" d="M988.13,393.75l-5.74-2.86a3.9,3.9,0,1,0-3.47,7h0l5.67,2.83,0,0a3.9,3.9,0,1,0,3.49-7Z"/><path class="cls-101" d="M968.86,384.47,963,381.82a3.88,3.88,0,0,0-3.21,7.07l0,0,5.76,2.62,0,0a3.89,3.89,0,0,0,3.22-7.08Z"/><path class="cls-102" d="M949.27,375.89l-5.94-2.43a3.86,3.86,0,1,0-2.93,7.15h0l5.86,2.41,0,0a3.87,3.87,0,1,0,2.94-7.16Z"/><path class="cls-103" d="M929.38,368l-6-2.22A3.85,3.85,0,1,0,920.7,373h0l5.94,2.2,0,0a3.86,3.86,0,0,0,2.68-7.23Z"/><path class="cls-104" d="M909.23,360.86l-6.09-2a3.83,3.83,0,0,0-2.4,7.28h0l6,2h0a3.84,3.84,0,1,0,2.42-7.28Z"/><path class="cls-105" d="M888.83,354.41l-6.16-1.79a3.82,3.82,0,0,0-2.13,7.33h0l6.08,1.78h0a3.82,3.82,0,0,0,2.15-7.34Z"/><path class="cls-106" d="M868.22,348.69,862,347.11a3.8,3.8,0,1,0-1.86,7.37h0l6.14,1.57h0a3.81,3.81,0,0,0,1.88-7.38Z"/><path class="cls-107" d="M847.42,343.69l-6.27-1.36a3.79,3.79,0,0,0-1.6,7.41h0l6.2,1.35h0a3.79,3.79,0,1,0,1.61-7.41Z"/><path class="cls-108" d="M826.46,339.43l-6.32-1.14a3.77,3.77,0,0,0-1.33,7.43h0l6.24,1.13h0a3.78,3.78,0,1,0,1.35-7.43Z"/><path class="cls-109" d="M805.36,335.91,799,335a3.76,3.76,0,0,0-1.07,7.44h0l6.27.91h0a3.76,3.76,0,0,0,1.08-7.44Z"/><path class="cls-110" d="M784.16,333.13l-6.38-.69a3.74,3.74,0,0,0-.81,7.44h0l6.3.69h0a3.74,3.74,0,1,0,.81-7.44Z"/><path class="cls-111" d="M762.86,331.1l-6.4-.46a3.72,3.72,0,1,0-.53,7.43h0l6.32.46h0a3.73,3.73,0,1,0,.55-7.44Z"/><path class="cls-112" d="M741.51,329.83l-6.41-.23a3.71,3.71,0,0,0-.27,7.41h0l6.33.24h0a3.71,3.71,0,1,0,.28-7.42Z"/><path class="cls-113" d="M720.14,329.32h-6.42a3.69,3.69,0,0,0,0,7.38h0l6.34,0h0a3.7,3.7,0,0,0,0-7.4Z"/><path class="cls-114" d="M698.75,329.58l-6.41.23a3.68,3.68,0,0,0,.27,7.35h0l6.33-.22h0a3.68,3.68,0,1,0-.25-7.36Z"/><path class="cls-115" d="M677.4,330.61l-6.4.47a3.66,3.66,0,0,0,.52,7.3h0l6.32-.45h0a3.67,3.67,0,0,0-.52-7.32Z"/><path class="cls-116" d="M656.09,332.43l-6.38.69a3.65,3.65,0,1,0,.79,7.25h0l6.3-.68h0a3.65,3.65,0,1,0-.78-7.26Z"/><path class="cls-117" d="M634.86,335l-6.35.93a3.63,3.63,0,0,0,1.06,7.18h0l6.26-.91h0a3.64,3.64,0,0,0-1-7.2Z"/><path class="cls-118" d="M613.74,338.43l-6.31,1.2a3.61,3.61,0,1,0,1.34,7.1h0l6.22-1.16h.05a3.62,3.62,0,0,0-1.34-7.12Z"/><path class="cls-119" d="M592.77,342.72l-6.26,1.47a3.6,3.6,0,1,0,1.65,7h0l6.16-1.43h0a3.61,3.61,0,0,0-1.64-7Z"/><path class="cls-120" d="M572,348l-6.19,1.76a3.59,3.59,0,0,0,2,6.9h0l6.09-1.73H574a3.59,3.59,0,0,0-2-6.91Z"/><path class="cls-121" d="M551.49,354.19l-6.08,2.08A3.55,3.55,0,0,0,547.7,363l0,0,6-2,0,0a3.56,3.56,0,0,0-2.27-6.74Z"/><path class="cls-122" d="M531.34,361.5l-6,2.41a3.49,3.49,0,1,0,2.62,6.48h0l5.86-2.34.06,0a3.51,3.51,0,1,0-2.6-6.52Z"/><path class="cls-123" d="M511.61,369.94l-5.82,2.76a3.45,3.45,0,1,0,3,6.23l0,0,5.72-2.68,0,0a3.46,3.46,0,1,0-2.94-6.27Z"/><path class="cls-124" d="M492.42,379.57l-5.63,3.13a3.4,3.4,0,1,0,3.31,5.95l0,0,5.53-3,.06,0a3.42,3.42,0,0,0-3.29-6Z"/><path class="cls-125" d="M473.9,390.46,468.5,394a3.35,3.35,0,0,0,3.66,5.62l0,0,5.3-3.42.06,0a3.37,3.37,0,0,0-3.65-5.66Z"/><path class="cls-126" d="M456.21,402.68l-5.13,3.92a3.31,3.31,0,1,0,4,5.25l.05,0,5-3.81.07-.05a3.32,3.32,0,0,0-4-5.29Z"/><path class="cls-127" d="M439.51,416.24l-4.79,4.34a3.26,3.26,0,1,0,4.37,4.83l.06,0,4.68-4.21.06-.05a3.28,3.28,0,0,0-4.37-4.88Z"/><path class="cls-128" d="M424,431.16l-4.4,4.74a3.21,3.21,0,0,0,4.71,4.37l.05,0,4.3-4.59.06-.06a3.23,3.23,0,1,0-4.71-4.42Z"/><path class="cls-129" d="M409.84,447.4l-3.95,5.14a3.17,3.17,0,1,0,5,3.85l.05-.06,3.84-5,.06-.07a3.18,3.18,0,1,0-5-3.9Z"/><path class="cls-130" d="M397.32,465l-3.4,5.5a3.12,3.12,0,0,0,5.31,3.28l0-.07,3.32-5.32.05-.08a3.14,3.14,0,1,0-5.32-3.32Z"/><path class="cls-131" d="M386.63,483.68l-2.84,5.81a3.07,3.07,0,1,0,5.51,2.7l0-.07,2.79-5.63,0-.08a3.09,3.09,0,1,0-5.53-2.74Z"/><path class="cls-132" d="M377.8,503.32l-2.29,6.05a3,3,0,0,0,5.66,2.14l0-.07,2.25-5.87,0-.08a3,3,0,1,0-5.68-2.18Z"/><path class="cls-133" d="M370.83,523.69l-1.72,6.21a3,3,0,1,0,5.74,1.59v-.06l1.71-6,0-.08a3,3,0,1,0-5.76-1.62Z"/><path class="cls-134" d="M365.72,544.57l-1.18,6.35a2.93,2.93,0,0,0,5.77,1.07v-.07l1.18-6.19v-.07a2.95,2.95,0,1,0-5.79-1.1Z"/><path class="cls-135" d="M362.44,565.82l-.63,6.42a2.89,2.89,0,0,0,5.75.56v-.06l.64-6.27v-.07a2.9,2.9,0,1,0-5.77-.59Z"/><path class="cls-136" d="M361,587.26l-.08,6.45a2.84,2.84,0,1,0,5.67.08v-.06l.12-6.31v-.07a2.86,2.86,0,0,0-5.71-.1Z"/><path class="cls-137" d="M361.33,608.75l.45,6.43a2.79,2.79,0,0,0,5.57-.4v-.06l-.42-6.29v-.07a2.81,2.81,0,0,0-5.6.37Z"/><path class="cls-138" d="M363.47,630.12l1,6.37a2.75,2.75,0,1,0,5.43-.85v0l-.94-6.24v-.07a2.76,2.76,0,0,0-5.46.83Z"/><path class="cls-139" d="M367.41,651.24,369,657.5a2.7,2.7,0,1,0,5.24-1.28l0-.06L372.7,650l0-.07a2.71,2.71,0,0,0-5.27,1.27Z"/><path class="cls-140" d="M373.15,671.94l2.08,6.11a2.65,2.65,0,0,0,5-1.71l0-.06-2-6,0-.06a2.67,2.67,0,0,0-5.06,1.69Z"/><path class="cls-141" d="M380.7,692.05l2.62,5.89a2.61,2.61,0,0,0,4.76-2.12l0-.05L385.52,690l0-.06a2.62,2.62,0,1,0-4.79,2.1Z"/><path class="cls-142" d="M390.05,711.39l3.16,5.62a2.56,2.56,0,0,0,4.46-2.5l0,0L394.58,709l0-.07a2.57,2.57,0,1,0-4.49,2.5Z"/><path class="cls-143" d="M401.22,729.75l3.7,5.29a2.48,2.48,0,0,0,4.07-2.82l0-.07L405.37,727l0-.06a2.5,2.5,0,1,0-4.12,2.84Z"/><path class="cls-144" d="M414.15,746.92l4.21,4.88a2.39,2.39,0,0,0,3.64-3.11l-.05-.05-4.07-4.8-.05-.06a2.42,2.42,0,0,0-3.69,3.13Z"/><path class="cls-145" d="M428.76,762.68l4.69,4.43a2.31,2.31,0,0,0,3.18-3.34l-.05,0L432,759.35l0-.05a2.33,2.33,0,0,0-3.23,3.37Z"/><path class="cls-146" d="M444.89,776.87,450,780.8a2.22,2.22,0,0,0,2.72-3.51l-.05,0-5-3.89-.05-.05a2.25,2.25,0,1,0-2.77,3.55Z"/><path class="cls-147" d="M462.33,789.38l5.45,3.42a2.14,2.14,0,0,0,2.29-3.62l-.05,0-5.32-3.4-.06,0a2.17,2.17,0,0,0-2.33,3.65Z"/><path class="cls-148" d="M480.86,800.17l5.75,2.89a2.06,2.06,0,0,0,1.87-3.66l-.05,0-5.63-2.89-.05,0a2.08,2.08,0,0,0-1.9,3.7Z"/><path class="cls-149" d="M500.3,809.21l6,2.36a2,2,0,0,0,1.47-3.66l-.05,0-5.86-2.38,0,0a2,2,0,0,0-1.51,3.71Z"/><path class="cls-150" d="M520.43,816.48l6.16,1.84a1.89,1.89,0,0,0,1.1-3.62h-.05l-6-1.86,0,0a1.92,1.92,0,1,0-1.13,3.66Z"/><path class="cls-151" d="M541.13,822l6.28,1.31a1.81,1.81,0,0,0,.75-3.54h0l-6.19-1.34h0a1.84,1.84,0,0,0-.78,3.59Z"/><path class="cls-152" d="M562.2,825.73l6.37.77a1.72,1.72,0,0,0,.43-3.42h0l-6.28-.82h0a1.75,1.75,0,1,0-.45,3.47Z"/><path class="cls-153" d="M583.5,827.69l6.41.24a1.64,1.64,0,0,0,.14-3.28h0l-6.33-.29h0a1.67,1.67,0,1,0-.15,3.33Z"/><path class="cls-154" d="M604.88,827.85l6.41-.3a1.56,1.56,0,0,0-.13-3.11h0l-6.33.25h0a1.58,1.58,0,0,0,.12,3.16Z"/><path class="cls-155" d="M626.2,826.2l6.37-.85a1.47,1.47,0,0,0-.38-2.92h0l-6.3.8h0a1.5,1.5,0,1,0,.38,3Z"/><path class="cls-156" d="M647.31,822.71l6.26-1.41a1.4,1.4,0,0,0,1-1.66,1.38,1.38,0,0,0-1.65-1h0l-6.2,1.35h0a1.41,1.41,0,1,0,.6,2.76Z"/><path class="cls-157" d="M668,817.35l6.09-2a1.31,1.31,0,0,0-.79-2.49h0l-6,1.9,0,0a1.33,1.33,0,1,0,.8,2.54Z"/><path class="cls-158" d="M688.09,810.11l5.89-2.54a1.22,1.22,0,0,0-1-2.25h0l-5.84,2.47,0,0a1.25,1.25,0,0,0,1,2.3Z"/><path class="cls-159" d="M707.41,801l5.6-3.11a1.14,1.14,0,0,0-1.09-2h0l-5.57,3h0A1.17,1.17,0,0,0,707.4,801Z"/><path class="cls-160" d="M725.71,790l4.13-2.85a1.06,1.06,0,0,0-1.2-1.75l0,0-4.1,2.78,0,0A1.08,1.08,0,1,0,725.7,790Z"/><path class="cls-161" d="M465.72,371a6.53,6.53,0,0,1-6.15-4.34l-9.1-25.71a132.22,132.22,0,0,1-35.69-14.46l-24.43,12.16a6.51,6.51,0,0,1-7.48-1.2L357.63,312.6a6.53,6.53,0,0,1-1.32-7.45l11.75-24.63a132.39,132.39,0,0,1-15-35.45l-25.86-8.68a6.51,6.51,0,0,1-4.44-6.12l-.29-35.42a6.51,6.51,0,0,1,4.34-6.19l25.71-9.1a132.58,132.58,0,0,1,14.45-35.7l-12.15-24.43A6.51,6.51,0,0,1,356,112l24.84-25.25a6.51,6.51,0,0,1,7.45-1.31L412.9,97.15a132.42,132.42,0,0,1,35.45-15L457,56.25a6.54,6.54,0,0,1,6.12-4.44l35.42-.29h.05a6.51,6.51,0,0,1,6.14,4.35l9.1,25.71A132.2,132.2,0,0,1,549.55,96L574,83.88a6.54,6.54,0,0,1,7.47,1.18l25.25,24.84a6.52,6.52,0,0,1,1.31,7.45L596.27,142a132.49,132.49,0,0,1,15,35.44l25.85,8.68a6.54,6.54,0,0,1,4.45,6.12l.28,35.42a6.51,6.51,0,0,1-4.34,6.2l-25.7,9.1a132.55,132.55,0,0,1-14.46,35.69l12.15,24.43a6.52,6.52,0,0,1-1.19,7.48l-24.83,25.24a6.5,6.5,0,0,1-7.45,1.31l-24.64-11.75a132.35,132.35,0,0,1-35.44,15l-8.68,25.86a6.54,6.54,0,0,1-6.12,4.44l-35.42.29Zm-50.56-53.83,1.93,1.17a124.36,124.36,0,0,0,37.39,15.15l2.2.5,10.21,28.82,33-.27,9.73-29,2.19-.53A124.43,124.43,0,0,0,549,317.24L550.9,316l27.62,13.18,23.17-23.55-13.63-27.4,1.18-1.93a124.44,124.44,0,0,0,15.14-37.39l.5-2.2,28.82-10.21-.27-33-29-9.73-.53-2.19a124.25,124.25,0,0,0-15.75-37.14L587,142.52l13.17-27.62L576.57,91.73l-27.4,13.63-1.92-1.18A124.39,124.39,0,0,0,509.85,89l-2.2-.5-10.2-28.83L464.4,60l-9.72,29-2.2.54a124.25,124.25,0,0,0-37.14,15.75l-1.91,1.21L385.82,93.3l-23.17,23.55,13.62,27.39-1.17,1.93A124.42,124.42,0,0,0,360,183.57l-.5,2.2L330.63,196l.27,33,29,9.73.53,2.2a124.53,124.53,0,0,0,15.76,37.14l1.2,1.91L364.21,307.6l23.56,23.17ZM451.52,85.53h0Zm30.14,215.85A89.55,89.55,0,0,1,481,122.29a90.67,90.67,0,0,1,19,1.85,4.09,4.09,0,1,1-1.66,8,81.37,81.37,0,0,0-73.64,137.67,81.37,81.37,0,0,0,138.43-58.67,81.29,81.29,0,0,0-11.87-41.68,4.09,4.09,0,1,1,7-4.26,89.55,89.55,0,0,1-75.74,136.15Z"/><path class="cls-161" d="M482.11,246.81a35.55,35.55,0,0,1-8.92-69.94h0a35.54,35.54,0,1,1,8.92,69.94Zm-6.86-62a27.35,27.35,0,1,0,33.39,19.55,27.15,27.15,0,0,0-33.39-19.55Z"/><path class="cls-161" d="M327.61,504a4.22,4.22,0,0,1-3.41-1.73l-7.43-10.08a64.29,64.29,0,0,1-17.59-1.59l-9.11,8.6a4.24,4.24,0,0,1-4.88.67L270.11,492a4.24,4.24,0,0,1-2.23-4.38l1.88-12.4a65,65,0,0,1-11.32-13.55l-12.52-.36a4.25,4.25,0,0,1-3.92-3L236.92,442a4.24,4.24,0,0,1,1.53-4.67l10.09-7.43a64.29,64.29,0,0,1,1.59-17.59l-8.61-9.12a4.25,4.25,0,0,1-.67-4.86l7.91-15.1a4.25,4.25,0,0,1,4.39-2.22l12.39,1.88a65,65,0,0,1,13.54-11.32l.37-12.52a4.25,4.25,0,0,1,3-3.92l16.27-5.08a4.23,4.23,0,0,1,4.67,1.53l7.43,10.08a65.11,65.11,0,0,1,17.59,1.59l9.11-8.6a4.26,4.26,0,0,1,4.87-.67l15.09,7.9a4.23,4.23,0,0,1,2.22,4.39l-1.87,12.39a65,65,0,0,1,11.32,13.55l12.52.37a4.23,4.23,0,0,1,3.92,3l5.08,16.26a4.24,4.24,0,0,1-1.53,4.67L379,423.94a64.18,64.18,0,0,1-1.59,17.58l8.6,9.12a4.25,4.25,0,0,1,.68,4.87l-7.91,15.09a4.21,4.21,0,0,1-4.38,2.22L362,471a64.77,64.77,0,0,1-13.55,11.32l-.36,12.52a4.22,4.22,0,0,1-3,3.91l-16.27,5.08A4,4,0,0,1,327.61,504Zm-.57-6.05h0Zm-7.32-12.11,8.62,11.7L342,493.25l.43-14.52,1.46-.86a59.06,59.06,0,0,0,14.62-12.21l1.1-1.29L374,466.55l6.64-12.68-10-10.58.43-1.64a58.61,58.61,0,0,0,1.71-19l-.12-1.69,11.7-8.62-4.28-13.67-14.52-.42-.86-1.46A58.88,58.88,0,0,0,352.5,382.2l-1.28-1.1,2.17-14.38-12.68-6.64-10.58,10-1.64-.42a58.61,58.61,0,0,0-19-1.71l-1.69.12-8.61-11.7-13.68,4.27-.42,14.53-1.46.86A58.63,58.63,0,0,0,269,388.21l-1.1,1.28-14.38-2.18L246.92,400l10,10.58-.42,1.64a58.61,58.61,0,0,0-1.71,19l.12,1.69-11.7,8.61,4.28,13.67,14.52.42.86,1.46a58.7,58.7,0,0,0,12.21,14.62l1.28,1.11-2.17,14.37,12.68,6.65,10.58-10,1.64.43A58.89,58.89,0,0,0,318,486ZM288,494.41h0ZM273,486.51Zm108.61-31.66h0Zm-1.87-57.44Zm-127.47-10.3h0ZM354.6,367.35Zm-69-8.09Zm-3.06-.09h0Zm18-3.23h0Zm13.14,115.5a44.18,44.18,0,0,1-4-88.17,3.07,3.07,0,1,1,.55,6.11,38.78,38.78,0,0,0-7.94,1.58A38,38,0,1,0,339,398.89a3.07,3.07,0,0,1,4.08-4.58,44.17,44.17,0,0,1-29.39,77.13Z"/><path class="cls-162" d="M1893,837.57s-23.59,22.37-31.39,62.14-26.31-56.22-26.31-56.22h-18.72s-7.06,98.9,45.78,106.76a28.35,28.35,0,0,0,26.47-10.48c9.65-12.25,24.7-34,28.34-54.82C1914.05,852.2,1893,837.57,1893,837.57Z"/><path class="cls-163" d="M2012.85,1295.53a3,3,0,0,0-.09-.89c-4.42-17.54-22.52-26.53-22.52-26.53l-8.7.68c-5,15.46-8.23,23-7.43,27.24,0,.11.06.23.09.34A206.67,206.67,0,0,0,2012.85,1295.53Z"/><path class="cls-164" d="M1974.2,1296.37a3.78,3.78,0,0,0,2.76,2.79c10.22,2.15,26.45.42,33.27-.47a3.17,3.17,0,0,0,2.62-3.16A206.67,206.67,0,0,1,1974.2,1296.37Z"/><path class="cls-165" d="M1997.41,1254.56l-3.81,18.35a3,3,0,0,1-2.56,2.46,25.23,25.23,0,0,1-5.91-.09,3.77,3.77,0,0,1-3-4.43l2.64-16.29Z"/><path class="cls-166" d="M1900.24,1296.22c9.3-.26,14.11-1.36,16.6-2.37,0,.92,0,1.86,0,2.84a1.84,1.84,0,0,1-1.76,1.86l-51-.32a2.33,2.33,0,0,1-1.87-3.4C1868.83,1295.38,1885.87,1296.62,1900.24,1296.22Z"/><path class="cls-167" d="M1862.14,1294.83a2,2,0,0,1,.2-.38c4.51-6.3,16-18.84,38.67-24.28l10.89-.35s4.84,8.43,4.94,24c-2.49,1-7.3,2.11-16.6,2.37C1885.87,1296.62,1868.83,1295.38,1862.14,1294.83Z"/><path class="cls-168" d="M1913.92,1253.33c-.13.81-1.62,13.14-2.19,17.92a2.36,2.36,0,0,1-2,2.14,24.94,24.94,0,0,1-7.48-.12,3.22,3.22,0,0,1-2.44-3.23v-19.35Z"/><path class="cls-169" d="M1990.14,1013.65s17.41,154.8,7.74,251.55c0,0-11.61,0-17.42-1.93,0,0-18.09-151.36-24-194.67a1.45,1.45,0,0,0-2.87-.09c-7.22,36.44-35.59,179.33-39,192.82,0,0-9.67,3.87-17.41,0,0,0,15.48-207,27.09-243.81Z"/><path class="cls-170" d="M2025,833.7s-73.53-11.61-131.58,3.87l3.87,60s15.48,83.21,27.09,120c0,0,44.5,7.74,65.79-3.87,0,0,17.41-104.49,27.09-120C2017.23,893.68,2026.9,853.05,2025,833.7Z"/><path class="cls-171" d="M1973.37,770.54l7.84,59.82s-20.46,9.4-34.79-.41l3.08-35Z"/><path class="cls-172" d="M2025,833.7s114.16,123.84-20.32,171.24v-9.67s50.31-42.57,11.61-100.62C2016.26,894.65,2021.1,839.5,2025,833.7Z"/><path class="cls-173" d="M2003.68,996.24s-17.41-11.61-25.15-7.74-7.74,9.67-7.74,9.67,3.87,7.74,9.67,5.81,19.35,1.93,25.16,0C2005.62,1004,2007.55,996.24,2003.68,996.24Z"/><path class="cls-174" d="M1815.43,780.94l24.56,8.27c3,.9,5,3.9,5.27,7.72l-1.28,41c.4,6.42-4.89,12.07-9.89,10.57l-19.7-6.71c-1.92-.58-3.19-2.59-3.21-5.08l-.44-51C1810.72,782.71,1813.16,780.25,1815.43,780.94Z"/><path class="cls-175" d="M1810.74,833.7s-7.68-24.64-3.78-28.79,11.7-15.59,12.22-6.24S1824.4,848.44,1810.74,833.7Z"/><path class="cls-176" d="M1928.35,760.41c-.11.71,8.62,47.49,8.62,47.49l26.61-5.55-1.69-45.58S1930.27,748.51,1928.35,760.41Z"/><path class="cls-177" d="M1953.93,764.19a3.94,3.94,0,0,1,1.86,2.9l2.72,23.57a3.49,3.49,0,0,1,0,1.07c-.33,2-1.87,8.11-8.18,6.21-5.38-1.62-10.35-3-14-2.39a3.9,3.9,0,0,0-3.12,4.59,146.15,146.15,0,0,0,5.46,20.8,3.89,3.89,0,0,0,4.7,2.4c5.15-1.43,15.13-4.52,22.75-8.87a3.92,3.92,0,0,0,2-3.5c-.16-6.34-.53-24.11.14-29.15.61-4.67,6.27-7.44,9-8.5a3.9,3.9,0,0,0,2.22-2.23c1.2-3.06,2.53-9.42-5.41-12.35a3.91,3.91,0,0,1-2.28-4.94c1.24-3.56,1.57-8.73-4.84-11.73s-11.52.09-14.39,2.92a4.08,4.08,0,0,1-4.82.72,2.57,2.57,0,0,0-2.56,0,3.8,3.8,0,0,1-5.15-1.66c-1.63-3.29-4.91-6.68-11.41-5.68-11.91,1.84-13.47,15-10.47,22.74s15.81,5,22.27,1.26C1945.07,759.56,1951.08,762.46,1953.93,764.19Z"/><path class="cls-178" d="M1967.84,789.74s-3.37-13,1.7-16.22,12.48-1.4,10.68,8.48C1978,794.29,1967.84,789.74,1967.84,789.74Z"/><path class="cls-12" d="M1915.83,753.23a.42.42,0,0,1-.38-.24c-4.33-9.26,5.77-16.65,5.87-16.73a.42.42,0,0,1,.48.68c-.09.07-9.63,7.07-5.6,15.7a.41.41,0,0,1-.2.55A.38.38,0,0,1,1915.83,753.23Z"/><path class="cls-6" d="M1756.12,782.26v84.58c0,6.89-4.2,12.48-9.38,12.48H1438.62c-4.3,0-8,3.9-9.1,9.45L1424,918.22c-.73,3.9-4.81,4.23-5.89.47L1411,893.81c-1.39-4.84-4.88-8-8.77-8H1389c-5.18,0-9.38-5.59-9.38-12.48V786.35c0-6.85,4.15-12.42,9.3-12.48l357.77-4.09C1751.87,769.72,1756.12,775.33,1756.12,782.26Z"/><ellipse class="cls-5" cx="1427.27" cy="825.08" rx="37.79" ry="38.79"/><path class="cls-179" d="M1441,809.36c0,7-5.65,14.49-12.62,14.49s-12.61-7.52-12.61-14.49,5.65-11.91,12.61-11.91S1441,802.39,1441,809.36Z"/><path class="cls-180" d="M1412.69,850.68h30.8a7.46,7.46,0,0,0,7.1-5.19l1.65-5.18a7.43,7.43,0,0,0-4.5-9.26c-12.53-4.58-25.49-4-38.77.42a7.43,7.43,0,0,0-4.75,9l1.27,4.7A7.47,7.47,0,0,0,1412.69,850.68Z"/><path class="cls-181" d="M1726.69,835.2a7.5,7.5,0,0,1-7.64,7.34H1494.16a7.5,7.5,0,0,1-7.64-7.34h0a7.49,7.49,0,0,1,7.64-7.33h224.89a7.49,7.49,0,0,1,7.64,7.33Z"/><path class="cls-182" d="M1620.2,858.72a6.66,6.66,0,0,1-6.66,6.66h-117.9a6.66,6.66,0,0,1-6.66-6.66h0a6.67,6.67,0,0,1,6.66-6.67h117.9a6.67,6.67,0,0,1,6.66,6.67Z"/><path class="cls-183" d="M1726.83,858.72a6.67,6.67,0,0,1-6.67,6.66h-85.09a6.66,6.66,0,0,1-6.66-6.66h0a6.67,6.67,0,0,1,6.66-6.67h85.09a6.67,6.67,0,0,1,6.67,6.67Z"/><rect class="cls-5" x="1485.9" y="789.51" width="132.25" height="19.48" rx="9.36"/><path class="cls-184" d="M721.7,827.88c-.07,74.35-.64,330.81-5.09,421.6-.47,9.61-7.24,17.19-15.47,17.33-40.72.65-190,1.3-256.44-3.44-13.85-1-24.58-14.37-24.51-30.6.34-78,2.15-297.5,11.63-397.85,1.13-12,9.42-21.43,19.73-22.41,44.42-4.2,194.5-13.56,251.9-7.93C713.8,805.6,721.71,815.72,721.7,827.88Z"/><path class="cls-161" d="M703,850.27c.86,60,3.35,259.75-.48,333.49-.56,10.78-8,19.34-17.24,19.77-38,1.75-167.47,4.61-223-1.83-10-1.16-17.64-10.81-17.92-22.56C443,1117.88,439,931.89,442.7,859c.59-11.63,8.51-21,18.45-21.79,41.12-3.4,178.81-10.61,226-6.54C696,831.4,702.89,839.88,703,850.27Z"/><path class="cls-185" d="M605.78,816.65h0a4.06,4.06,0,0,1-3.56,4.21c-9.63.37-36.73,1.44-48.85,2-2.39.11-4.21-2.44-3.69-5.17l.08-.47a3.92,3.92,0,0,1,3.34-3.38c8.2-.7,32.93-2.58,49.26-1.54C604.33,812.42,605.83,814.35,605.78,816.65Z"/><path class="cls-186" d="M459.35,1250.16A29.35,29.35,0,0,1,430,1221v-49.77a1,1,0,1,1,2.05,0V1221a27.25,27.25,0,0,0,27.26,27,1.08,1.08,0,0,1,1.08,1.06A1,1,0,0,1,459.35,1250.16Z"/><path class="cls-187" d="M299.08,1258.36s-2,11.17-2.94,22.23a7.62,7.62,0,0,0,7.29,8.25c14.73.62,46.23,1.81,57.54,1.31a2.49,2.49,0,0,0,2.18-3.4h0a5.58,5.58,0,0,0-2.84-3l-52-23.92Z"/><path class="cls-188" d="M297.47,1251.79l1.58,13.37s9.12,4.24,15.34-.54l-3.77-14.89Z"/><path class="cls-189" d="M298.66,1000.57c-.69,3.49-3.68,174.14,14.56,250.61a2.59,2.59,0,0,1-1.52,3,45,45,0,0,1-14.85,3,4.47,4.47,0,0,1-4.44-3.21c-5.21-17.74-30.2-106.64-33.46-191.56-3.64-94.9,0-3.23,0-3.23l2.14-58.66Z"/><path class="cls-190" d="M239.23,1264.19s-3.14,5.64-6.19,20.62a4.65,4.65,0,0,0,4.09,5.57c4.87.48,12.35,1.09,18.35,1a4.64,4.64,0,0,0,4.59-5.17c-.67-5.47-2.73-14.44-9.13-21.44Z"/><path class="cls-191" d="M236.47,1247l3.7,20.21s3.66,2.72,10.91.75l-1.77-21.75Z"/><path class="cls-192" d="M226.46,1005.8c-14.92,90,3.24,222.54,9.36,248.47a4,4,0,0,0,3.26,3.07,27,27,0,0,0,11.67-.46,3.72,3.72,0,0,0,2.67-3.42c.82-21-.66-149.67,13.24-200.54a11.59,11.59,0,0,1,4.46-6.38l27-19.18,2.07-31Z"/><path class="cls-193" d="M321.52,835.2c-44.71-.74-94,11.74-94,11.74-13.32,77.76-2.33,167.46-2.33,167.46,34.61,9.07,73.66-5.55,73.66-5.55,5.75-32.51,32.59-124,32.59-124,21.85-2.71,39.85-9,54.67-17.35-11.31-13.1-16.64-29.77-18.95-39.63C351.31,832.8,335.31,835.43,321.52,835.2Z"/><path class="cls-194" d="M453.59,769.34a8.56,8.56,0,0,0-9.95-2.79c-6.58,27.79-41.08,50.33-76.52,61.34,2.31,9.86,7.64,26.53,18.95,39.63C444.88,834.45,453.59,769.34,453.59,769.34Z"/><path class="cls-195" d="M452.52,770.69c.46,1.46-4.86,3.69-8-2.29-.11-2.86-1.85-15.13-.14-17.46,9.11-12.43,26.78-28,26.78-28a4.2,4.2,0,0,1,.53,5.84l-8.58,8.93c1.8,3.24,4,6,5,9.89a12,12,0,0,1-1.2,8.84,104.48,104.48,0,0,1-5.5,9A11.86,11.86,0,0,1,452.52,770.69Z"/><path class="cls-196" d="M459.38,743.5l-7.82,6.62-2.45,6.6,7,7.72s2.34-13.08,4.08-15.91S461,744.33,459.38,743.5Z"/><path class="cls-197" d="M244.63,890.23l-17.15-43.29s-41.76,28.37-48.63,64.35A95,95,0,0,1,214,921.15C220.37,906.88,244.63,890.23,244.63,890.23Z"/><path class="cls-198" d="M276.24,798.9,262,840a1.5,1.5,0,0,0,.68,1.79c3.87,2.14,17.85,8.34,34.68-2.34a7,7,0,0,0,3.22-5l4.6-35.61Z"/><path class="cls-199" d="M307.19,760.8s15.62,29.41,13.62,41.29-21.36,11-38.27,1.38l-11.81-31.75Z"/><path class="cls-200" d="M283.29,787.87a1.21,1.21,0,0,0,.53-1.77c-1.25-1.91-3.6-5.81-4.35-9.23,0,0-2.81-1.8,7.15-4.18s24.8-6.08,27.92-14.56c3-8.26-5-29-17.7-12.48a1.21,1.21,0,0,1-1.92,0c-2.1-2.72-7.59-8.37-15.22-4.94-7.15,3.2-7.95,8.44-7.85,11.07a1.21,1.21,0,0,1-1.43,1.24c-3.61-.69-12.28-1.28-16.32,7.61-3.33,7.32-1.17,11.46.81,13.49a1.21,1.21,0,0,1-.52,2c-2.37.72-5.44,2.73-5.13,8.29.42,7.69,9,7,11.46,6.66a1.21,1.21,0,0,1,1.08.38c2.1,2.32,11.55,12.18,21.78,13.37a1.23,1.23,0,0,0,1.28-1.62l-4.43-12.86a1.22,1.22,0,0,1,.66-1.51Z"/><path class="cls-201" d="M285.07,789.7s-11.13-7.63-11.94-1.2,10,9.3,15.38,6.91Z"/><path class="cls-202" d="M179.14,911.64s-28.54,65,41.23,74.53l9.51-7.93S195,959.21,214,921.15C214,921.15,193.41,903.71,179.14,911.64Z"/><path class="cls-203" d="M229.25,945.86l24.57,8.28c3,.89,5,3.9,5.26,7.72l-1.28,41c.4,6.42-4.89,12.07-9.89,10.57l-19.7-6.71c-1.91-.58-3.19-2.59-3.21-5.08l-.43-51C224.54,947.64,227,945.18,229.25,945.86Z"/><path class="cls-204" d="M222.9,994.47c-.67-.74-5.26-9.14-4.08-20.38s-1-16.32,4.23-15.88,9.58,1.32,9,6.85S233.1,1005.74,222.9,994.47Z"/></g></g></g></svg>